<svg width="611" height="235" viewBox="0 0 611 235" fill="none" xmlns="http://www.w3.org/2000/svg">
<g clip-path="url(#clip0_1_78)">
<path d="M349.27 69.13C350.891 69.0712 352.507 69.3353 354.024 69.907C355.542 70.4787 356.931 71.3465 358.11 72.46C359.263 73.5879 360.166 74.9448 360.762 76.4433C361.358 77.9418 361.633 79.5486 361.57 81.16C361.57 89.0666 357.47 93.0233 349.27 93.03H330.58V181.03C330.58 184.957 329.47 188.087 327.25 190.42C326.011 191.684 324.519 192.672 322.871 193.32C321.224 193.968 319.458 194.261 317.69 194.18C313.31 194.12 310.01 192.81 307.79 190.25C305.572 187.703 304.413 184.404 304.55 181.03V93.03H285.55C281.337 93.03 278.337 91.79 276.55 89.31C274.793 86.9572 273.848 84.0966 273.86 81.16C273.882 78.1499 274.942 75.2396 276.86 72.92C278.86 70.3866 281.763 69.1233 285.57 69.13H349.27Z" fill="white"/>
<path d="M380 68.02C383.467 67.96 386.71 69.47 389.73 72.55C393.063 75.9233 397.133 81.2 401.94 88.38L413.21 105.3L426.27 86.48C431.963 78.36 435.36 73.7167 436.46 72.55C437.69 71.1048 439.225 69.9493 440.953 69.1662C442.682 68.3831 444.562 67.9917 446.46 68.02C454.66 68.1333 458.957 72.3167 459.35 80.57C459.47 82.91 458.21 86.07 455.6 90.05L449.28 98.42L428.28 126.95C431.92 131.85 437.383 139.183 444.67 148.95L455.2 163.3C458.533 167.913 461.437 171.783 463.91 174.91C465.257 177.179 465.911 179.794 465.79 182.43C465.84 184.049 465.53 185.658 464.881 187.142C464.233 188.626 463.262 189.947 462.04 191.01C459.42 193.151 456.123 194.289 452.74 194.22C450.583 194.271 448.446 193.801 446.51 192.85C444.763 192.037 443.241 190.808 442.08 189.27L413.08 148.94L386.74 185.42C384.975 187.729 383.068 189.927 381.03 192C378.805 193.481 376.183 194.255 373.51 194.22C370.174 194.305 366.914 193.215 364.3 191.14C363.037 190.075 362.028 188.741 361.348 187.236C360.668 185.73 360.334 184.092 360.37 182.44C360.415 178.785 361.71 175.256 364.04 172.44L398.04 127.03C391.14 117.55 385.613 110.017 381.46 104.43L371.98 91.87C368.513 87.25 366.807 83.4867 366.86 80.58C367.033 72.3933 371.413 68.2067 380 68.02Z" fill="white"/>
<path d="M522.21 66.99C529.837 67.05 535.613 70.8933 539.54 78.52L571.21 165.92C571.997 168.307 573.163 171.61 574.71 175.83C575.616 178.205 576.133 180.71 576.24 183.25C576.252 184.744 575.934 186.223 575.309 187.58C574.683 188.937 573.765 190.139 572.62 191.1C570.296 193.135 567.299 194.233 564.21 194.18C560.563 194.18 557.69 193.27 555.59 191.45C553.71 189.91 552.143 187.177 550.89 183.25L546.37 168.91H497.54L492.54 185.04C490.6 191.247 486.417 194.293 479.99 194.18C476.694 194.229 473.494 193.073 470.99 190.93C469.736 189.858 468.734 188.522 468.055 187.018C467.375 185.515 467.036 183.88 467.06 182.23C467.06 180.797 468.683 175.673 471.93 166.86L504.11 79.63C508.343 71.15 514.377 66.9367 522.21 66.99ZM538.51 144.99L522.21 94.12H521.7L505.14 144.99H538.51Z" fill="white"/>
<path d="M584.61 81.3C584.61 77.3 585.79 74.04 588.15 71.64C590.51 69.24 593.71 68.06 597.75 68.06C599.485 67.9763 601.219 68.2599 602.837 68.8923C604.455 69.5248 605.921 70.4917 607.14 71.73C609.529 74.33 610.788 77.7722 610.64 81.3V180.89C610.77 184.277 609.645 187.592 607.48 190.2C605.213 192.867 601.97 194.2 597.75 194.2C593.53 194.2 590.26 192.9 587.94 190.3C585.659 187.749 584.465 184.409 584.61 180.99V81.3Z" fill="white"/>
<path d="M276.13 51.45C277.941 52.5454 280.013 53.1326 282.13 53.15C285.56 53.15 287.56 51.34 287.56 48.72C287.56 46.3 286.17 44.91 282.67 43.56C278.44 42.06 275.82 39.87 275.82 36.21C275.82 32.21 279.17 29.21 284.21 29.21C286.196 29.1436 288.167 29.5804 289.94 30.48L289.02 33.21C287.504 32.3979 285.81 31.9752 284.09 31.98C280.55 31.98 279.21 34.1 279.21 35.87C279.21 38.29 280.79 39.49 284.36 40.87C288.75 42.57 290.98 44.68 290.98 48.49C290.98 52.49 287.98 55.96 281.9 55.96C279.587 55.9891 277.306 55.4171 275.28 54.3L276.13 51.45Z" fill="white"/>
<path d="M299.3 29.6V55.53H295.95V29.6H299.3Z" fill="white"/>
<path d="M305.07 51.45C306.881 52.5454 308.954 53.1326 311.07 53.15C314.5 53.15 316.5 51.34 316.5 48.72C316.5 46.3 315.11 44.91 311.61 43.56C307.38 42.06 304.76 39.87 304.76 36.21C304.76 32.21 308.11 29.21 313.15 29.21C315.137 29.1436 317.108 29.5804 318.88 30.48L317.96 33.21C316.444 32.3979 314.75 31.9752 313.03 31.98C309.49 31.98 308.15 34.1 308.15 35.87C308.15 38.29 309.73 39.49 313.3 40.87C317.69 42.57 319.92 44.68 319.92 48.49C319.92 52.49 316.92 55.96 310.84 55.96C308.527 55.9891 306.246 55.4171 304.22 54.3L305.07 51.45Z" fill="white"/>
<path d="M329.81 32.44H321.92V29.6H341.13V32.44H333.2V55.53H329.81V32.44Z" fill="white"/>
<path d="M357.83 43.37H347.75V52.72H358.99V55.53H344.4V29.6H358.4V32.4H347.75V40.6H357.83V43.37Z" fill="white"/>
<path d="M385.58 44.14C385.38 40.52 385.15 36.14 385.19 32.94H385.08C384.19 35.94 383.08 39.22 381.81 42.8L377.23 55.38H374.69L370.46 43.03C369.23 39.37 368.19 36.03 367.46 32.94C367.39 36.18 367.19 40.52 366.96 44.41L366.27 55.53H363.08L364.88 29.6H369.16L373.58 42.14C374.66 45.34 375.58 48.14 376.2 50.88H376.31C376.97 48.26 377.89 45.41 379.05 42.14L383.66 29.6H387.93L389.46 55.53H386.19L385.58 44.14Z" fill="white"/>
<path d="M398.85 47.37L396.16 55.53H392.7L401.51 29.6H405.51L414.36 55.53H410.78L408.01 47.37H398.85ZM407.36 44.76L404.82 37.3C404.24 35.61 403.82 34.07 403.47 32.57H403.39C403.01 34.11 402.59 35.69 402.09 37.26L399.54 44.77L407.36 44.76Z" fill="white"/>
<path d="M446.88 54.38C444.313 55.3025 441.608 55.7826 438.88 55.8C434.95 55.8 431.72 54.8 429.18 52.38C427.967 51.0901 427.022 49.5719 426.4 47.9135C425.779 46.2551 425.493 44.4897 425.56 42.72C425.56 34.98 430.91 29.33 439.61 29.33C441.823 29.2756 444.022 29.6808 446.07 30.52L445.26 33.25C443.454 32.4663 441.498 32.0874 439.53 32.14C433.22 32.14 429.1 36.06 429.1 42.56C429.1 49.06 433.1 53.03 439.1 53.03C440.618 53.1107 442.137 52.8758 443.56 52.34V44.6H438.29V41.91H446.83L446.88 54.38Z" fill="white"/>
<path d="M465.82 43.37H455.73V52.72H466.97V55.53H452.38V29.6H466.38V32.4H455.73V40.6H465.82V43.37Z" fill="white"/>
<path d="M471.7 29.94C473.822 29.5652 475.975 29.3845 478.13 29.4C481.71 29.4 484.02 30.06 485.63 31.52C486.295 32.1518 486.818 32.9186 487.163 33.7688C487.508 34.619 487.667 35.5332 487.63 36.45C487.649 37.9332 487.182 39.382 486.301 40.5754C485.42 41.7687 484.173 42.6413 482.75 43.06V43.18C484.75 43.87 485.94 45.72 486.56 48.41C487.008 50.8394 487.677 53.2226 488.56 55.53H485.09C484.318 53.5264 483.738 51.4536 483.36 49.34C482.59 45.76 481.21 44.41 478.17 44.34H475.01V55.57H471.66L471.7 29.94ZM475.05 41.76H478.46C482.03 41.76 484.31 39.76 484.31 36.83C484.31 33.48 481.88 32.02 478.31 31.98C477.198 31.9509 476.087 32.055 475 32.29L475.05 41.76Z" fill="white"/>
<path d="M506.22 43.37H496.14V52.72H507.38V55.53H492.79V29.6H506.79V32.4H496.14V40.6H506.22V43.37Z" fill="white"/>
<path d="M512.11 55.53V29.6H515.77L524.08 42.72C525.813 45.4251 527.366 48.2412 528.73 51.15H528.81C528.5 47.68 528.43 44.53 528.43 40.49V29.6H531.58V55.53H528.2L519.96 42.37C518.169 39.5843 516.55 36.6923 515.11 33.71H515C515.19 36.98 515.27 40.1 515.27 44.41V55.49L512.11 55.53Z" fill="white"/>
<path d="M555.94 54.69C553.768 55.5765 551.434 55.9956 549.09 55.92C541.78 55.92 536.28 51.3 536.28 42.8C536.28 34.68 541.78 29.17 549.82 29.17C551.935 29.0765 554.044 29.4735 555.98 30.33L555.17 33.06C553.529 32.3159 551.742 31.947 549.94 31.98C543.86 31.98 539.82 35.87 539.82 42.68C539.82 49.03 543.47 53.11 549.82 53.11C551.696 53.1394 553.557 52.7713 555.28 52.03L555.94 54.69Z" fill="white"/>
<path d="M563.87 29.6V55.53H560.52V29.6H563.87Z" fill="white"/>
<path d="M574.3 47.37L571.61 55.53H568.14L576.95 29.6H580.95L589.8 55.53H586.22L583.46 47.37H574.3ZM582.8 44.76L580.26 37.3C579.69 35.61 579.26 34.07 578.92 32.57H578.84C578.46 34.11 578.03 35.69 577.53 37.26L574.99 44.77L582.8 44.76Z" fill="white"/>
<path d="M594.04 29.6H597.39V52.72H608.46V55.53H594.04V29.6Z" fill="white"/>
<path d="M242.861 121.31C246.351 65.9978 204.34 18.3299 149.029 14.8402C93.7168 11.3506 46.0488 53.3608 42.5592 108.673C39.0696 163.984 81.0798 211.652 136.392 215.142C191.703 218.632 239.371 176.621 242.861 121.31Z" fill="url(#paint0_radial_1_78)"/>
<path d="M111.25 99.22C111.25 99.22 101.05 90.58 101.34 87.69C101.63 84.8 101.25 85.23 103.24 85.81C103.85 84.64 102.81 77.04 101.07 76.53C99.3299 76.02 102.6 77.79 101.45 71.53C101.81 70.28 103 63.07 100.89 64.43C100.71 65.37 99.6199 71 100.09 72.49C100.56 73.98 99.3899 76.43 99.3499 76.87C99.3099 77.31 100.35 82.03 98.0999 79.02C97.0999 77.83 96.8299 74.69 98.2099 74.91C98.4495 74.0359 98.4296 73.111 98.1526 72.248C97.8756 71.385 97.3535 70.6213 96.6499 70.05C96.9999 68.53 98.0499 69.55 98.3399 69.82C98.5631 68.7043 98.4589 67.5479 98.0399 66.49C98.3299 65.49 101.8 58.21 98.7299 58.22C99.1899 55.39 101.06 49.22 102.41 48.03C103.76 46.84 111.41 40.1 111.41 40.1C111.41 40.1 113.93 42 114.41 39.44C114.89 36.88 113.68 40.44 112.97 39.11C112.26 37.78 113.45 35.92 116.13 33.18C118.81 30.44 121.55 27.28 121.41 25.89C121.27 24.5 121.2 23.49 121.52 23.04C121.84 22.59 121.2 21.95 119.52 22.1C117.84 22.25 112.28 22.16 111.43 21.38C110.58 20.6 114.93 21.13 117.49 20.07C120.05 19.01 118.14 18.46 118.49 18.2C118.84 17.94 134.58 14.32 136.41 16.11C138.53 16.54 137.57 17.11 138.41 17.23C138.82 18.61 136.3 20.13 137.1 21.09C137.9 22.05 141.68 22.42 142.1 23C142.52 23.58 142.45 24.9 142.9 25.21C143.35 25.52 144.06 26.81 144.9 27.68C145.74 28.55 144.9 29.57 146.01 29.45C147.12 29.33 147.35 27.31 149.28 29.67C151.21 32.03 151.67 30.73 151.91 30.53C152.15 30.33 153.5 28.47 153.73 29.53C153.96 30.59 152.99 31.47 153.73 31.42C154.47 31.37 155.56 27.9 156.73 28.32C157.9 28.74 156.06 30.01 156.65 31.09C157.24 32.17 157.4 30.67 157.59 31.27C157.78 31.87 157.52 31.79 157.72 32.66C157.92 33.53 159.5 33.36 159.6 32.39C159.7 31.42 158.42 30.88 158.16 30.53C157.9 30.18 159 29.53 159.16 28.85C159.32 28.17 158.16 28.1 158.53 27.59C158.9 27.08 160.3 27.11 160.24 27.91C160.18 28.71 160.55 29.35 160.78 28.91C161.01 28.47 162.99 29.37 162.12 29.57C161.25 29.77 160.39 30.24 160.87 30.74C161.35 31.24 162.87 28.74 163.58 29.19C164.29 29.64 167.04 31.54 165.83 31.37C164.62 31.2 163.76 29.51 163.83 30.37C163.9 31.23 167.35 33.46 169.83 34.98C172.31 36.5 170.83 36.34 170.69 36.67C170.55 37 173.31 39.14 173.81 39.29C174.31 39.44 173.11 41.07 172.42 40.96C171.73 40.85 170.03 38.64 170.17 39.4C170.31 40.16 171.73 43.64 171.1 43.64C170.47 43.64 169.58 42.38 169.75 42.7C169.92 43.02 170.47 44.26 169.97 44.12C169.47 43.98 164.36 39.25 164.97 38.24C165.58 37.23 167.63 35.59 166.04 35.49C164.45 35.39 163.93 36.85 164.04 35.81C164.15 34.77 164.66 33.38 163.95 33.35C163.24 33.32 162.23 33.66 161.68 32.78C161.27 34.19 161.68 35.57 160.88 35.52C160.08 35.47 157.57 34.83 157.7 35.59C157.83 36.35 161.28 39.42 160.48 39.37C159.68 39.32 159.29 38.21 158.55 38.27C157.81 38.33 158.24 38.72 157.33 38.45C156.42 38.18 155.95 38.86 156.22 37.59C156.49 36.32 155.64 36.79 154.22 37.18C152.8 37.57 151.44 36.82 150.63 37.13C149.82 37.44 147.2 38.38 147.39 38.98C147.58 39.58 147.62 39.41 147.2 40.54C146.78 41.67 145.84 42.13 147.12 42.68C148.4 43.23 151.02 44.17 151.36 45.17C151.7 46.17 153.46 47.86 154.09 47.86C154.72 47.86 153.47 51.55 153.44 52.86C153.417 53.1226 153.471 53.3862 153.595 53.6184C153.72 53.8506 153.91 54.0412 154.142 54.1667C154.374 54.2921 154.637 54.347 154.9 54.3245C155.163 54.302 155.413 54.2031 155.62 54.04C156.45 53.38 155.47 49.31 156.29 49.28C157.11 49.25 161.11 49.42 160.35 47.39C159.59 45.36 158.95 44.47 160.84 44.47C160.46 43.28 160.53 41.47 160.93 41.35C161.33 41.23 164.44 41.35 165.15 42.03C165.86 42.71 165.15 43.48 166.15 43.77C167.15 44.06 169.04 44.97 167.83 45.43C166.62 45.89 166.83 47.2 167.9 47.34C168.97 47.48 170.8 48.55 170.7 46.72C172.02 46.83 171.7 47.72 172.23 48.6C172.828 49.4239 173.497 50.1935 174.23 50.9C174.136 51.1148 173.969 51.2896 173.758 51.3938C173.548 51.498 173.308 51.525 173.08 51.47C172.22 51.31 176.82 54.72 177.76 54.9C178.7 55.08 179.64 57.43 179.46 58.36C179.28 59.29 177.03 59.28 175.46 60.71C172.18 60.21 168.7 58.84 168.37 59.37C168.04 59.9 164.91 59.81 166.66 60.59C168.41 61.37 169.98 60.65 169.8 61.59C169.62 62.53 169.3 63.59 169.8 64.02C170.3 64.45 170.53 64.32 171.31 64.73C172.09 65.14 173.38 65.97 173.18 66.36C172.98 66.75 172.31 66.55 172.49 66.88C172.67 67.21 173.64 68.2 171.56 68.23C169.48 68.26 168.45 69.31 168.35 69.64C168.25 69.97 166.42 67.91 167.55 67.42C168.68 66.93 167.38 65.21 166.96 66.35C166.54 67.49 162.96 67.88 162.53 67.95C162.1 68.02 160.84 68.81 162.3 70.31C160.9 71.08 158.16 70.31 157.15 70.98C156.14 71.65 155.99 71.54 155.69 72.27C155.341 72.9417 154.773 73.4744 154.08 73.78C153.44 74.13 152.71 77.25 151.9 78.19C151.09 79.13 143.16 80.34 142.49 81.4C141.82 82.46 142.43 90.93 140.55 91.82C138.67 92.71 137.55 90.33 138.95 83.98C136.89 81.76 135.48 82.25 135.13 82.24C134.78 82.23 133.93 81.08 133.93 81.08H131.58C131.58 81.08 130.65 78.37 129.47 79.65C128.29 80.93 127.69 80.49 125.84 79.41C123.99 78.33 122.55 78 122.31 78.83C122.07 79.66 118.74 77.83 118.5 79.53C118.388 80.8307 117.874 82.0644 117.03 83.06C116.57 83.38 112.03 84.68 114.4 93.65C115.75 95.21 116.23 96.07 116.82 95.88C117.41 95.69 119.09 96.45 119.68 96.88C120.27 97.31 123.07 94.54 123.44 93.56C123.81 92.58 128.92 94.25 128.75 94.83C128.58 95.41 125.29 98.06 124.6 99.21C123.91 100.36 124.53 100.99 122.72 102.27C124.45 103.13 128.81 104.58 129.22 105.33C129.63 106.08 130.53 107.33 127.82 112.94C128.49 115.29 128.43 116.72 129.1 116.94C129.77 117.16 131.95 118.31 133.63 117.81C135.51 117.54 136 119.58 136.77 120.34C137.86 120.34 139.51 120.51 140.24 118.02C142.41 117.66 145.15 118.18 147.12 116.95C149.09 115.72 148.18 117.95 147.87 119.06C147.56 120.17 149.69 118.06 150.31 117.79C150.93 117.52 150.74 120.34 152.9 121.6C155.06 122.86 157.71 123.6 158.9 122.98C160.09 122.36 163.32 123.27 163.61 124.44C163.9 125.61 162.66 126.78 163.4 127.35C164.14 127.92 165.66 128.55 166.24 129.35C166.82 130.15 167.06 132.74 170.19 133.74C173.32 134.74 176.87 134.96 177.79 142.34C177.06 143.93 175.52 143.03 175.56 144.75C175.6 146.47 173.99 146.75 175.92 147.56C177.85 148.37 178.92 147.25 179.92 146.47C180.92 145.69 183.64 147.01 184.09 148.23C184.54 149.45 183.47 149.76 184.47 150.05C185.47 150.34 190.63 150.57 192.25 152.76C193.87 154.95 197.72 154.71 194.85 159C191.98 163.29 180.19 177.81 171.22 180.15C165.3 181.59 164.22 181.27 162.71 183.99C162.2 185.46 152.56 188.52 150.45 189.89C148.85 190.77 145.04 187.41 145.45 188.16C145.86 188.91 146.58 189.21 146.08 190.33C145.58 191.45 145.48 192.41 143.08 192.53C140.68 192.65 138.4 191.26 138.08 191.9C137.76 192.54 137.51 194.16 135.63 193.53C133.75 192.9 133.07 193.33 132.9 193.9C132.881 194.131 132.817 194.357 132.71 194.563C132.604 194.77 132.458 194.953 132.28 195.103C132.103 195.252 131.897 195.365 131.676 195.435C131.454 195.505 131.221 195.531 130.99 195.51C130.704 195.497 130.418 195.546 130.153 195.653C129.887 195.76 129.648 195.923 129.451 196.131C129.253 196.338 129.103 196.586 129.01 196.857C128.916 197.127 128.882 197.415 128.91 197.7C128.96 198.79 125.91 197.65 124.97 198.54C124.03 199.43 123.38 199.7 125.04 200.81C126.7 201.92 129.24 203.11 127.12 202.94C125 202.77 123.88 201.37 122.79 200.79C121.864 200.415 120.968 199.97 120.11 199.46C119.77 199.1 118.19 194.59 118.79 194.4C119.39 194.21 121.3 195.04 121.66 194.4C122.02 193.76 122.53 192.03 123.34 191.73C124.15 191.43 122.27 191.06 122.34 190.34C122.41 189.62 123.92 185.22 126.84 183.55C128.46 179.55 128.67 180.03 129.51 177.75C130.35 175.47 131.44 180.11 135.56 165.91C131.64 162.33 128.15 157.91 128.24 156.66C128.33 155.41 128.56 152.16 123.81 142.14C124.34 140.94 123.95 139.48 124.25 139.38C124.55 139.28 126.56 138.88 126.77 138.13C126.98 137.38 125.64 137.99 125.68 136.92C125.72 135.85 126.73 133.62 127.49 133.48C128.25 133.34 127.68 131.91 129 132.03C129.628 132.01 130.237 131.811 130.757 131.457C131.276 131.103 131.683 130.608 131.93 130.03C132.17 129.19 133.62 130.42 134.23 129.88C134.84 129.34 133.99 128.82 134.15 127.97C134.31 127.12 136.22 124.25 135.4 123.65C134.58 123.05 135.28 119.74 134.27 119.8C133.26 119.86 132.89 118.33 132.12 119.45C131.35 120.57 131.77 122.45 130.52 121.24C129.473 120.032 128.257 118.981 126.91 118.12C125.91 117.64 125.91 115.86 125.35 115.12C124.79 114.38 123.26 116.41 124.07 112.05C122.96 108.76 123.89 108.05 122.81 107.72C121.73 107.39 118.47 106.82 118.06 105.44C117.65 104.06 116.16 102.37 114.89 100.83C113.62 99.29 113.89 98.81 111.25 99.22Z" fill="#E42528" stroke="white" stroke-width="2" stroke-miterlimit="10"/>
<path d="M172.28 25.48C172.28 25.48 170.75 25.75 170.66 26.09C170.57 26.43 172.53 27.71 170.44 27.46C168.35 27.21 170.15 28.46 171.15 29.65C172.15 30.84 173 29.83 174.25 31.09C175.5 32.35 176.37 36.21 179.25 36.95C179.64 38.41 180.54 36.87 179.08 40.32C179.54 42.8 185.32 50.51 186.83 49.96C188.34 49.41 189.62 49.69 188.04 46.43L188.41 45.43C188.41 45.43 186.54 43.81 188.01 43.7C189.48 43.59 189.52 43.78 190.94 40.76C192.45 40.21 193.43 37.44 191.32 37.27C189.21 37.1 189.24 36.04 188.95 35.5C188.66 34.96 189.44 33.5 189.02 33.09C188.6 32.68 186.96 32.4 186.3 31.58C185.64 30.76 187.9 31.05 184.85 28.82C181.8 26.59 181.64 26.53 180.17 26.92C179.17 26.63 179.45 25.99 179.17 25.81C178.89 25.63 175.63 24.06 175.6 24.81C175.57 25.56 175.95 26.08 174.46 25.92C173.717 25.8706 172.984 25.7226 172.28 25.48Z" fill="#E42528" stroke="white" stroke-width="2" stroke-miterlimit="10"/>
<path d="M131.76 95.17C131.76 95.17 136.1 91.84 140.56 96.51C145.02 101.18 146.76 102.64 146.76 102.64C145.417 102.802 144.056 102.687 142.76 102.3C141.05 101.67 141.18 97.52 138.59 97.58C136 97.64 135.85 95.83 135.85 95.83C135.85 95.83 132.31 94.66 131.76 95.17Z" fill="#E42528" stroke="white" stroke-width="2" stroke-miterlimit="10"/>
<path d="M148.07 103.69C148.07 103.69 150.76 106.1 146.39 105.77C145.76 107.48 148.31 107.55 149.09 107.64C149.87 107.73 153.53 109.64 153.74 108.85C153.95 108.06 154.67 108.45 155.08 108.43C155.49 108.41 154.54 106.11 153.21 105.59C151.88 105.07 148.07 103.69 148.07 103.69Z" fill="#E42528" stroke="white" stroke-width="2" stroke-miterlimit="10"/>
<path d="M179.72 59.92C179.72 59.92 179.72 57.63 177.32 61.66C176.01 63.85 175.47 64.77 178.32 65.32C181.17 65.87 181.07 67.06 181.07 67.06C181.07 67.06 183.07 67.64 182.31 64.18C180.38 63.35 179.65 63.54 179.57 62.44C179.523 61.597 179.574 60.7514 179.72 59.92Z" fill="#E42528" stroke="white" stroke-width="2" stroke-miterlimit="10"/>
<path d="M201.55 33.49C201.078 33.4766 200.607 33.4332 200.14 33.36C200.4 36.67 203.21 37.22 204.44 38.12C205.67 39.02 207.23 39.2 207.92 41.96C208.61 44.72 210.28 45.49 211.27 46.72C212.237 47.9895 213.113 49.3262 213.89 50.72C214.33 51.53 212.89 49.49 214.5 49.55C216.11 49.61 216.82 49.95 217.35 50.92C217.88 51.89 218.7 53.74 218.95 52.87C219.2 52 220.54 51.57 220.27 52.98C220 54.39 219.09 54.26 218.73 54.56C218.37 54.86 219.5 56.56 219.73 57.56C219.96 58.56 221.73 59.62 221.93 61.17C222.13 62.72 221.75 65.03 221.39 65.34C221.03 65.65 220.82 66.34 222.72 67.75C224.129 68.8145 225.256 70.2086 226 71.81C226.14 72.26 225.37 73.52 225 73.81C224.63 74.1 221.73 72.99 223.07 75.81C224.41 78.63 225.69 84.95 226.62 85.49C227.55 86.03 227.49 84.8 228.31 85.71C229.13 86.62 230.54 85.01 230.69 84.51C230.672 83.507 230.602 82.5057 230.48 81.51C230.48 80.15 229.55 78.67 229.48 77.85C229.41 77.03 228.33 74.85 228.96 73.11C229.35 71.7429 229.489 70.3166 229.37 68.9C229.37 68.9 230.14 67.64 230.6 68.9C231.06 70.16 231.6 71.61 232.16 71.9C232.72 72.19 232.94 72 233.26 73.71C233.58 75.42 234.11 73.55 234.63 74.11C232.79 69.45 224.88 50.94 201.55 33.49Z" fill="#E42528" stroke="white" stroke-width="2" stroke-miterlimit="10"/>
<path d="M240.46 89.75C240.46 89.75 238.61 90.97 238.1 89.47C237.59 87.97 237.1 81.47 235.83 83.81C234.56 86.15 233.19 87.81 233.04 89.22C232.89 90.63 231.48 90.39 230.97 89.83C230.46 89.27 230.97 91.72 230.6 92.97C229.999 95.1428 229.756 97.399 229.88 99.65C229.72 102.98 229 104.53 228.41 104.22C227.82 103.91 228.1 107.64 227.88 108.39C227.66 109.14 226.03 114.74 226.18 116.54C226.33 118.34 227.69 120.22 226.42 123.64C225.15 127.06 225.66 128.14 226.79 130.77C227.92 133.4 226.56 133.41 227.68 134.68C228.8 135.95 227.28 136.99 228.8 139.19C230.32 141.39 230.61 143.19 232.98 142.02C235.35 140.85 236.41 141.4 236.85 139.9C237.29 138.4 238.11 135.54 238.73 136.67C239.35 137.8 240.31 141.25 241.16 139.74C243.28 132.3 246.29 109.61 240.46 89.75Z" fill="#E42528" stroke="white" stroke-width="2" stroke-miterlimit="10"/>
<path d="M211.16 51.45C211.513 52.5522 212.115 53.5583 212.92 54.39C214.03 55.52 214.92 56.31 213.97 56.05C213.02 55.79 213.05 57.05 213.15 57.61C213.564 58.4289 214.025 59.2235 214.53 59.99C215.04 61.04 213.68 61.37 214.95 61.37C216.22 61.37 216.47 61.1 216.65 60.79C216.83 60.48 216.02 60.16 216.12 59.19C216.22 58.22 216.27 56.81 216.76 57.94C217.25 59.07 216.54 59.31 217.2 60.14C217.86 60.97 218.73 61.39 218.54 62.33C218.35 63.27 217.91 64.85 219.09 63.57C219.807 62.8423 220.27 61.9022 220.41 60.89C220.6 60.22 219.53 58.89 219.22 58.74C218.819 58.4049 218.481 58.0021 218.22 57.55C218.04 57.23 217.7 56.23 216.94 56.37C216.18 56.51 215.37 57.44 215.43 56.92C215.418 56.1548 215.304 55.3947 215.09 54.66C214.93 53.98 213.9 54.41 213.75 53.37C213.6 52.33 211.02 50.06 211.16 51.45Z" fill="#E42528" stroke="white" stroke-width="2" stroke-miterlimit="10"/>
<path d="M147.13 22.23C147.13 22.23 143.56 21.46 144.56 22.69C145.56 23.92 149.32 22.59 148.01 23.83C146.7 25.07 142.53 25.48 144.95 26.46C147.37 27.44 147.09 27.46 149.13 28.35C151.17 29.24 150.83 28.57 151.85 27.35C152.87 26.13 152.34 24.25 151.23 25.28C150.12 26.31 149.64 25.63 149.58 24.93C149.52 24.23 150.06 23.72 149.82 22.71C149.58 21.7 147.13 22.23 147.13 22.23Z" fill="#E42528" stroke="white" stroke-width="2" stroke-miterlimit="10"/>
<path d="M165.37 23.2C164.37 23.44 164.07 25.8 162.95 26.41C161.83 27.02 159.36 27.13 161.35 27.71C161.81 27.84 167.12 26.48 165.35 27.92C163.4 29.52 167.03 26.79 167.41 25.92C167.666 25.4006 168.104 24.9934 168.64 24.7758C169.177 24.5582 169.775 24.5455 170.32 24.74C170.32 24.74 166.39 22.95 165.37 23.2Z" fill="#E42528" stroke="white" stroke-width="2" stroke-miterlimit="10"/>
<path fill-rule="evenodd" clip-rule="evenodd" d="M174.02 166.04C173.457 166.73 172.781 167.318 172.02 167.78C171.385 168.173 170.715 168.508 170.02 168.78C169.22 169.08 168.41 169.33 167.59 169.56C166.77 169.79 166.05 169.98 165.29 170.22C164.77 170.38 164.29 170.55 163.76 170.76C163.268 170.954 162.802 171.206 162.37 171.51C162.114 171.693 161.879 171.904 161.67 172.14C161.33 172.542 161.09 173.018 160.97 173.53C160.882 173.93 160.848 174.341 160.87 174.75C160.905 175.378 161.016 175.999 161.2 176.6C161.435 177.38 161.726 178.142 162.07 178.88C162.36 179.5 162.67 180.12 163.01 180.72C163.178 181.018 163.316 181.333 163.42 181.66C163.492 181.874 163.539 182.095 163.56 182.32C163.572 182.5 163.548 182.68 163.49 182.85C163.444 182.99 163.358 183.113 163.243 183.204C163.127 183.295 162.987 183.349 162.84 183.36C162.681 183.37 162.521 183.35 162.37 183.3C162.138 183.219 161.919 183.105 161.72 182.96C161.357 182.683 161.046 182.344 160.8 181.96C160.595 181.644 160.421 181.309 160.28 180.96C159.91 179.976 159.455 179.025 158.92 178.12C158.55 177.479 158.121 176.873 157.64 176.31C157.184 175.77 156.674 175.278 156.12 174.84C155.357 174.247 154.52 173.756 153.63 173.38C152.647 172.943 151.621 172.608 150.57 172.38C149.5 172.15 148.41 172 147.33 171.87C146.25 171.74 144.88 171.61 143.65 171.5C143.016 171.452 142.39 171.338 141.78 171.16C141.428 171.051 141.092 170.896 140.78 170.7C140.597 170.597 140.437 170.457 140.31 170.29C140.271 170.24 140.237 170.187 140.21 170.13C140.16 170.033 140.149 169.92 140.181 169.815C140.213 169.711 140.284 169.623 140.38 169.57C140.466 169.517 140.561 169.48 140.66 169.46C140.822 169.415 140.991 169.395 141.16 169.4C141.377 169.402 141.595 169.418 141.81 169.45C142.761 169.608 143.728 169.652 144.69 169.58C145.831 169.487 146.962 169.293 148.07 169C149.264 168.687 150.437 168.296 151.58 167.83L151.91 167.69C152.151 167.599 152.374 167.467 152.57 167.3C152.71 167.175 152.82 167.021 152.893 166.848C152.966 166.674 152.999 166.487 152.99 166.3C152.975 166.058 152.917 165.821 152.82 165.6C152.684 165.286 152.509 164.99 152.3 164.72C152.15 164.52 151.99 164.34 151.83 164.16C151.67 163.98 151.63 163.91 151.53 163.79C151.06 163.17 150.58 162.56 150.09 161.95C149.6 161.34 149.01 160.58 148.49 159.89C148.25 159.584 148.051 159.248 147.9 158.89C147.819 158.715 147.762 158.53 147.73 158.34C147.7 158.191 147.7 158.038 147.73 157.89C147.739 157.802 147.765 157.716 147.807 157.638C147.849 157.56 147.906 157.491 147.975 157.436C148.043 157.38 148.123 157.338 148.208 157.313C148.293 157.288 148.382 157.28 148.47 157.29C148.672 157.303 148.867 157.364 149.04 157.47C149.343 157.642 149.606 157.877 149.81 158.16C150 158.41 150.21 158.65 150.41 158.89L151.06 159.61C151.26 159.84 151.48 160.06 151.69 160.28L152.29 160.88L152.67 161.24C153.3 161.83 153.96 162.39 154.67 162.93C155.13 163.28 155.6 163.62 156.08 163.93C157.372 164.813 158.761 165.544 160.22 166.11C161.607 166.641 163.061 166.977 164.54 167.11C167.585 167.401 170.634 166.588 173.13 164.82C173.35 164.68 173.55 164.52 173.76 164.37C173.9 164.259 174.055 164.168 174.22 164.1C174.309 164.056 174.403 164.023 174.5 164H174.66C174.714 163.991 174.769 163.995 174.822 164.012C174.874 164.029 174.921 164.059 174.959 164.098C174.998 164.137 175.026 164.185 175.042 164.238C175.057 164.29 175.06 164.346 175.05 164.4C175.046 164.517 175.023 164.632 174.98 164.74C174.909 164.911 174.822 165.075 174.72 165.23C174.509 165.518 174.274 165.789 174.02 166.04Z" fill="white"/>
<path fill-rule="evenodd" clip-rule="evenodd" d="M181.01 156.8C181.65 157.338 182.126 158.046 182.382 158.841C182.639 159.637 182.666 160.489 182.46 161.3C182.284 161.971 181.953 162.59 181.494 163.11C181.035 163.629 180.46 164.033 179.816 164.29C179.172 164.547 178.477 164.649 177.787 164.588C177.096 164.527 176.429 164.305 175.84 163.94C175.021 163.44 174.384 162.69 174.023 161.801C173.663 160.911 173.599 159.929 173.84 159C174.009 158.347 174.331 157.744 174.78 157.24C175.391 156.553 176.201 156.074 177.097 155.867C177.993 155.661 178.93 155.739 179.78 156.09C180.223 156.264 180.638 156.503 181.01 156.8Z" fill="white"/>
<path fill-rule="evenodd" clip-rule="evenodd" d="M159.85 160.75C160.29 160.216 160.893 159.84 161.566 159.68C162.239 159.519 162.946 159.582 163.58 159.86C163.954 160.011 164.295 160.235 164.58 160.52C165.069 160.985 165.397 161.594 165.514 162.259C165.632 162.923 165.534 163.608 165.234 164.213C164.935 164.818 164.45 165.311 163.85 165.62C163.25 165.929 162.566 166.037 161.9 165.93C161.461 165.861 161.041 165.701 160.667 165.462C160.292 165.223 159.971 164.91 159.723 164.541C159.475 164.172 159.306 163.756 159.227 163.319C159.147 162.881 159.158 162.433 159.26 162C159.357 161.543 159.559 161.115 159.85 160.75Z" fill="white"/>
<g opacity="0.7">
<path d="M245.46 132.58C245.3 132.581 245.145 132.528 245.02 132.43L243.8 131.56C243.637 131.445 243.526 131.269 243.492 131.072C243.459 130.875 243.504 130.673 243.62 130.51C243.735 130.347 243.911 130.236 244.107 130.203C244.304 130.169 244.507 130.215 244.67 130.33L245.9 131.22C245.98 131.278 246.048 131.351 246.1 131.435C246.152 131.519 246.187 131.612 246.203 131.71C246.219 131.807 246.215 131.907 246.192 132.003C246.169 132.099 246.128 132.19 246.07 132.27C245.999 132.365 245.907 132.443 245.801 132.496C245.695 132.55 245.578 132.579 245.46 132.58Z" fill="url(#paint1_linear_1_78)"/>
<path d="M197.71 204.87H194.71C194.611 204.87 194.513 204.85 194.422 204.812C194.331 204.773 194.248 204.717 194.179 204.646C194.11 204.575 194.056 204.491 194.02 204.399C193.984 204.307 193.967 204.209 193.97 204.11C193.971 204.012 193.992 203.914 194.031 203.824C194.07 203.733 194.126 203.651 194.197 203.583C194.267 203.514 194.35 203.46 194.442 203.423C194.533 203.387 194.631 203.369 194.73 203.37H197.73C197.915 203.391 198.086 203.48 198.21 203.619C198.334 203.759 198.403 203.939 198.403 204.125C198.403 204.312 198.334 204.491 198.21 204.631C198.086 204.77 197.915 204.859 197.73 204.88L197.71 204.87ZM201.49 204.87C201.291 204.87 201.1 204.791 200.959 204.65C200.819 204.51 200.74 204.319 200.74 204.12C200.74 203.921 200.819 203.73 200.959 203.59C201.1 203.449 201.291 203.37 201.49 203.37L204.49 203.31C204.589 203.306 204.687 203.322 204.78 203.357C204.872 203.391 204.957 203.444 205.029 203.512C205.101 203.58 205.158 203.662 205.198 203.753C205.237 203.843 205.259 203.941 205.26 204.04C205.263 204.238 205.188 204.43 205.051 204.573C204.915 204.717 204.728 204.802 204.53 204.81L201.53 204.87H201.49ZM190.92 204.79L187.92 204.69C187.735 204.669 187.564 204.58 187.439 204.441C187.315 204.301 187.247 204.122 187.247 203.935C187.247 203.749 187.315 203.569 187.439 203.429C187.564 203.29 187.735 203.201 187.92 203.18L190.92 203.28C191.119 203.28 191.309 203.359 191.45 203.5C191.591 203.64 191.67 203.831 191.67 204.03C191.67 204.229 191.591 204.42 191.45 204.56C191.309 204.701 191.119 204.78 190.92 204.78V204.79ZM208.28 204.68C208.095 204.659 207.924 204.57 207.799 204.431C207.675 204.292 207.607 204.112 207.607 203.925C207.607 203.739 207.675 203.559 207.799 203.419C207.924 203.28 208.095 203.191 208.28 203.17C209.28 203.17 210.28 203.07 211.28 203.01C211.385 202.993 211.492 202.999 211.594 203.026C211.697 203.053 211.792 203.102 211.875 203.168C211.958 203.235 212.026 203.318 212.074 203.412C212.123 203.506 212.151 203.609 212.158 203.715C212.164 203.821 212.148 203.927 212.111 204.027C212.074 204.126 212.016 204.217 211.942 204.292C211.868 204.368 211.779 204.428 211.68 204.467C211.581 204.506 211.476 204.524 211.37 204.52L208.37 204.68H208.28ZM184.12 204.51L181.12 204.34C181.014 204.343 180.909 204.324 180.811 204.284C180.713 204.244 180.624 204.184 180.551 204.107C180.478 204.031 180.421 203.94 180.385 203.841C180.349 203.742 180.333 203.636 180.34 203.53C180.347 203.425 180.376 203.322 180.425 203.228C180.474 203.134 180.543 203.052 180.625 202.986C180.708 202.92 180.804 202.872 180.906 202.845C181.008 202.818 181.115 202.813 181.22 202.83L184.22 203.01C184.419 203.01 184.609 203.089 184.75 203.23C184.891 203.37 184.97 203.561 184.97 203.76C184.97 203.959 184.891 204.15 184.75 204.29C184.609 204.431 184.419 204.51 184.22 204.51H184.12ZM215.07 204.26C214.881 204.261 214.699 204.19 214.56 204.062C214.421 203.934 214.335 203.758 214.32 203.57C214.31 203.471 214.321 203.371 214.35 203.277C214.38 203.182 214.429 203.094 214.493 203.019C214.557 202.943 214.636 202.881 214.725 202.837C214.814 202.792 214.911 202.766 215.01 202.76L218.01 202.5C218.207 202.48 218.405 202.54 218.558 202.666C218.712 202.791 218.81 202.973 218.83 203.17C218.849 203.37 218.789 203.57 218.661 203.726C218.534 203.881 218.35 203.98 218.15 204L215.15 204.26H215.07ZM177.34 204.07H177.28L174.28 203.82C174.081 203.803 173.897 203.707 173.768 203.554C173.64 203.402 173.578 203.204 173.595 203.005C173.612 202.806 173.708 202.622 173.86 202.494C174.013 202.365 174.211 202.303 174.41 202.32L177.41 202.57C177.609 202.578 177.796 202.665 177.931 202.811C178.066 202.957 178.138 203.151 178.13 203.35C178.122 203.549 178.035 203.737 177.889 203.872C177.743 204.007 177.549 204.078 177.35 204.07H177.34ZM221.83 203.6C221.631 203.612 221.435 203.544 221.286 203.412C221.137 203.28 221.047 203.094 221.035 202.895C221.023 202.696 221.09 202.501 221.223 202.352C221.355 202.202 221.541 202.112 221.74 202.1C222.74 201.98 223.74 201.86 224.74 201.72C224.929 201.713 225.114 201.776 225.259 201.898C225.403 202.02 225.497 202.191 225.522 202.379C225.547 202.567 225.501 202.757 225.394 202.912C225.286 203.068 225.124 203.178 224.94 203.22L221.94 203.6H221.83ZM170.57 203.48H170.46L167.46 203.17C167.361 203.159 167.266 203.128 167.179 203.08C167.093 203.032 167.016 202.968 166.954 202.89C166.83 202.734 166.772 202.534 166.795 202.335C166.817 202.136 166.918 201.954 167.075 201.83C167.231 201.705 167.431 201.647 167.63 201.67C168.63 201.78 169.63 201.89 170.63 201.98C170.815 202.008 170.984 202.104 171.103 202.25C171.222 202.395 171.283 202.579 171.274 202.767C171.266 202.954 171.188 203.132 171.056 203.265C170.924 203.399 170.747 203.479 170.56 203.49L170.57 203.48ZM163.82 202.73H163.72L160.72 202.35C160.521 202.323 160.342 202.218 160.22 202.059C160.098 201.9 160.044 201.699 160.07 201.5C160.082 201.402 160.114 201.308 160.163 201.223C160.212 201.138 160.277 201.063 160.356 201.004C160.434 200.944 160.523 200.901 160.618 200.876C160.713 200.851 160.812 200.846 160.91 200.86L163.91 201.23C164.009 201.241 164.104 201.272 164.191 201.32C164.278 201.369 164.354 201.434 164.416 201.512C164.477 201.59 164.522 201.68 164.549 201.775C164.575 201.871 164.582 201.971 164.57 202.07C164.541 202.247 164.449 202.409 164.312 202.524C164.174 202.64 164 202.702 163.82 202.7V202.73ZM228.56 202.67C228.372 202.67 228.191 202.598 228.052 202.471C227.914 202.343 227.829 202.168 227.814 201.98C227.799 201.793 227.855 201.606 227.971 201.458C228.087 201.31 228.254 201.211 228.44 201.18C229.44 201.01 230.44 200.84 231.44 200.66C231.629 200.642 231.818 200.697 231.97 200.812C232.121 200.927 232.224 201.094 232.258 201.281C232.292 201.468 232.254 201.661 232.153 201.822C232.051 201.983 231.893 202.1 231.71 202.15C230.71 202.33 229.71 202.5 228.71 202.66L228.56 202.67ZM157.08 201.85H156.97L153.97 201.41C153.774 201.38 153.597 201.274 153.479 201.115C153.361 200.956 153.311 200.756 153.34 200.56C153.369 200.361 153.477 200.182 153.638 200.063C153.799 199.943 154.001 199.891 154.2 199.92L157.2 200.36C157.399 200.373 157.584 200.465 157.715 200.615C157.847 200.765 157.913 200.961 157.9 201.16C157.887 201.359 157.795 201.544 157.645 201.676C157.495 201.807 157.299 201.873 157.1 201.86L157.08 201.85ZM235.25 201.43C235.077 201.428 234.91 201.367 234.776 201.258C234.642 201.149 234.548 200.999 234.51 200.83C234.488 200.733 234.486 200.633 234.503 200.536C234.521 200.438 234.557 200.345 234.611 200.262C234.666 200.179 234.736 200.108 234.818 200.053C234.9 199.997 234.993 199.959 235.09 199.94C236.09 199.73 237.09 199.5 238.02 199.27C238.213 199.225 238.417 199.259 238.586 199.364C238.754 199.469 238.875 199.636 238.92 199.83C238.965 200.024 238.933 200.227 238.83 200.397C238.728 200.567 238.562 200.69 238.37 200.74C237.37 200.97 236.37 201.2 235.37 201.41L235.25 201.43ZM150.36 200.83H150.23L147.23 200.33C147.034 200.297 146.858 200.187 146.743 200.025C146.628 199.863 146.582 199.661 146.615 199.465C146.648 199.269 146.758 199.094 146.92 198.978C147.082 198.863 147.284 198.817 147.48 198.85L150.48 199.34C150.679 199.355 150.864 199.448 150.994 199.599C151.124 199.75 151.189 199.946 151.175 200.145C151.16 200.344 151.067 200.529 150.916 200.659C150.765 200.79 150.569 200.855 150.37 200.84L150.36 200.83ZM241.85 199.83C241.663 199.838 241.48 199.775 241.337 199.655C241.194 199.535 241.101 199.366 241.076 199.181C241.051 198.996 241.096 198.808 241.202 198.654C241.308 198.501 241.468 198.392 241.65 198.35C242.65 198.08 243.59 197.79 244.52 197.5C244.614 197.471 244.714 197.46 244.812 197.47C244.911 197.479 245.007 197.508 245.094 197.554C245.181 197.601 245.259 197.664 245.321 197.741C245.384 197.817 245.431 197.905 245.46 198C245.491 198.094 245.502 198.193 245.494 198.291C245.486 198.39 245.459 198.486 245.413 198.573C245.367 198.661 245.305 198.739 245.228 198.802C245.152 198.865 245.064 198.912 244.97 198.94C244.02 199.24 243.04 199.53 242.05 199.8L241.85 199.83ZM143.66 199.7H143.52C142.52 199.53 141.52 199.34 140.52 199.15C140.324 199.112 140.151 198.997 140.039 198.831C139.927 198.665 139.886 198.461 139.925 198.265C139.963 198.069 140.078 197.896 140.244 197.784C140.41 197.673 140.614 197.632 140.81 197.67L143.81 198.22C143.989 198.261 144.147 198.365 144.255 198.513C144.363 198.661 144.414 198.844 144.398 199.027C144.382 199.209 144.301 199.38 144.169 199.508C144.037 199.635 143.863 199.711 143.68 199.72L143.66 199.7ZM136.99 198.42H136.83L133.83 197.81C133.723 197.801 133.619 197.769 133.526 197.717C133.432 197.665 133.351 197.594 133.286 197.508C133.222 197.422 133.177 197.324 133.153 197.22C133.13 197.115 133.129 197.007 133.15 196.902C133.171 196.797 133.215 196.698 133.277 196.61C133.339 196.523 133.419 196.45 133.512 196.396C133.604 196.342 133.707 196.309 133.814 196.297C133.92 196.286 134.028 196.297 134.13 196.33L137.08 196.94C137.267 196.971 137.436 197.071 137.553 197.222C137.669 197.372 137.724 197.561 137.706 197.75C137.688 197.94 137.599 198.115 137.457 198.241C137.315 198.368 137.13 198.435 136.94 198.43L136.99 198.42ZM248.32 197.77C248.141 197.772 247.968 197.71 247.831 197.596C247.694 197.482 247.602 197.323 247.572 197.147C247.542 196.971 247.576 196.79 247.667 196.637C247.758 196.483 247.901 196.367 248.07 196.31C249.02 195.97 249.96 195.61 250.86 195.24C250.952 195.199 251.052 195.178 251.153 195.176C251.253 195.175 251.354 195.194 251.447 195.232C251.54 195.271 251.625 195.327 251.696 195.399C251.767 195.471 251.823 195.556 251.86 195.65C251.901 195.742 251.922 195.842 251.924 195.943C251.925 196.044 251.906 196.144 251.868 196.237C251.829 196.331 251.773 196.415 251.701 196.486C251.629 196.557 251.544 196.613 251.45 196.65C250.53 197.03 249.57 197.39 248.6 197.75C248.505 197.758 248.41 197.748 248.32 197.72V197.77ZM130.32 197.02H130.16L127.21 196.36C127.015 196.315 126.846 196.194 126.74 196.025C126.634 195.855 126.6 195.65 126.645 195.455C126.69 195.26 126.811 195.091 126.98 194.985C127.15 194.879 127.355 194.845 127.55 194.89L130.48 195.55C130.671 195.579 130.843 195.681 130.961 195.834C131.079 195.987 131.134 196.179 131.113 196.372C131.092 196.564 130.998 196.74 130.851 196.865C130.703 196.99 130.513 197.052 130.32 197.04V197.02ZM123.7 195.5H123.53L120.59 194.79C120.411 194.728 120.261 194.602 120.171 194.435C120.08 194.269 120.055 194.075 120.1 193.891C120.145 193.707 120.257 193.547 120.414 193.441C120.572 193.335 120.762 193.292 120.95 193.32C121.95 193.57 122.95 193.8 123.88 194.04C124.073 194.09 124.239 194.212 124.343 194.382C124.448 194.552 124.482 194.755 124.44 194.95C124.384 195.096 124.285 195.222 124.157 195.311C124.028 195.4 123.876 195.448 123.72 195.45L123.7 195.5ZM254.58 195.16C254.437 195.162 254.297 195.122 254.176 195.046C254.056 194.969 253.96 194.86 253.9 194.73C253.814 194.551 253.802 194.345 253.868 194.158C253.934 193.97 254.071 193.816 254.25 193.73C255.17 193.29 256.06 192.84 256.91 192.38C257.083 192.29 257.284 192.271 257.471 192.327C257.657 192.383 257.815 192.51 257.91 192.68C257.997 192.853 258.014 193.054 257.959 193.24C257.903 193.426 257.778 193.583 257.61 193.68C256.74 194.15 255.82 194.62 254.88 195.07C254.79 195.102 254.695 195.116 254.6 195.11L254.58 195.16ZM117.13 193.8H116.94L114.01 193.02C113.915 192.994 113.825 192.95 113.747 192.89C113.669 192.83 113.603 192.755 113.554 192.67C113.505 192.584 113.473 192.49 113.46 192.392C113.448 192.295 113.454 192.195 113.48 192.1C113.505 192.005 113.549 191.916 113.61 191.837C113.67 191.759 113.745 191.694 113.83 191.644C113.915 191.595 114.01 191.563 114.107 191.551C114.205 191.538 114.305 191.544 114.4 191.57L117.32 192.34C117.501 192.382 117.659 192.49 117.765 192.643C117.871 192.795 117.916 192.982 117.893 193.166C117.869 193.35 117.778 193.519 117.637 193.64C117.496 193.76 117.315 193.825 117.13 193.82V193.8ZM110.56 192.03H110.36L107.45 191.2C107.258 191.144 107.097 191.015 107 190.841C106.902 190.667 106.877 190.462 106.93 190.27C106.988 190.078 107.119 189.916 107.294 189.819C107.47 189.722 107.676 189.697 107.87 189.75L110.77 190.57C110.953 190.612 111.114 190.721 111.221 190.876C111.328 191.031 111.372 191.22 111.346 191.407C111.319 191.593 111.224 191.762 111.078 191.882C110.933 192.001 110.748 192.061 110.56 192.05V192.03ZM260.56 191.81C260.398 191.811 260.24 191.759 260.109 191.662C259.979 191.565 259.884 191.429 259.838 191.274C259.792 191.118 259.797 190.952 259.853 190.8C259.91 190.648 260.014 190.518 260.15 190.43C260.99 189.88 261.81 189.3 262.57 188.72C262.73 188.6 262.932 188.549 263.131 188.577C263.329 188.605 263.509 188.71 263.63 188.87C263.75 189.028 263.803 189.227 263.777 189.424C263.751 189.621 263.647 189.799 263.49 189.92C262.69 190.533 261.85 191.123 260.97 191.69C260.838 191.773 260.685 191.815 260.53 191.81H260.56ZM104.06 190.14H103.85L100.95 189.26C100.855 189.231 100.767 189.184 100.69 189.122C100.614 189.059 100.551 188.982 100.504 188.894C100.458 188.807 100.429 188.711 100.42 188.612C100.41 188.514 100.42 188.415 100.45 188.32C100.512 188.129 100.646 187.971 100.823 187.877C101.001 187.784 101.208 187.763 101.4 187.82L104.28 188.7C104.454 188.751 104.604 188.863 104.702 189.016C104.8 189.169 104.839 189.352 104.812 189.531C104.785 189.711 104.694 189.874 104.556 189.992C104.417 190.109 104.241 190.172 104.06 190.17V190.14ZM97.5698 188.14C97.4937 188.153 97.4159 188.153 97.3398 188.14L94.4598 187.2C94.3598 187.17 94.2671 187.12 94.1877 187.052C94.1083 186.984 94.044 186.9 93.9988 186.806C93.9536 186.712 93.9286 186.609 93.9253 186.505C93.922 186.401 93.9406 186.297 93.9798 186.2C94.0123 186.102 94.0642 186.011 94.1326 185.933C94.201 185.855 94.2844 185.792 94.3777 185.747C94.4711 185.703 94.5725 185.677 94.6759 185.672C94.7794 185.668 94.8827 185.684 94.9798 185.72L97.8398 186.66C97.9344 186.688 98.0224 186.736 98.0985 186.799C98.1746 186.861 98.2374 186.939 98.2831 187.027C98.3287 187.114 98.3564 187.21 98.3644 187.309C98.3724 187.407 98.3607 187.506 98.3298 187.6C98.2781 187.765 98.1716 187.908 98.028 188.004C97.8843 188.1 97.7121 188.145 97.5398 188.13L97.5698 188.14ZM265.9 187.65C265.749 187.65 265.602 187.605 265.477 187.52C265.353 187.435 265.257 187.314 265.201 187.174C265.146 187.034 265.135 186.88 265.169 186.733C265.202 186.586 265.279 186.453 265.39 186.35C266.11 185.66 266.79 184.94 267.39 184.22C267.454 184.145 267.532 184.083 267.621 184.039C267.709 183.994 267.805 183.967 267.903 183.96C268.002 183.952 268.101 183.964 268.194 183.995C268.288 184.026 268.375 184.075 268.45 184.14C268.526 184.203 268.589 184.282 268.634 184.37C268.68 184.458 268.707 184.554 268.714 184.653C268.722 184.752 268.709 184.851 268.678 184.945C268.646 185.039 268.596 185.126 268.53 185.2C267.862 185.986 267.151 186.733 266.4 187.44C266.329 187.507 266.246 187.559 266.155 187.594C266.064 187.628 265.967 187.644 265.87 187.64L265.9 187.65ZM91.1198 185.99C91.0404 186.004 90.9591 186.004 90.8798 185.99L88.0198 184.99C87.8315 184.924 87.6772 184.785 87.591 184.605C87.5047 184.425 87.4935 184.218 87.5598 184.03C87.6261 183.842 87.7645 183.687 87.9445 183.601C88.1245 183.515 88.3315 183.504 88.5198 183.57L91.3598 184.57C91.5278 184.627 91.6702 184.742 91.7614 184.894C91.8527 185.047 91.887 185.226 91.8582 185.402C91.8294 185.577 91.7394 185.736 91.6042 185.851C91.469 185.966 91.2973 186.03 91.1198 186.03V185.99ZM84.7098 183.72C84.621 183.717 84.5333 183.7 84.4498 183.67C83.4498 183.33 82.5598 182.97 81.6198 182.62C81.4328 182.55 81.2814 182.408 81.1989 182.226C81.1164 182.044 81.1095 181.837 81.1798 181.65C81.2501 181.463 81.3917 181.312 81.5737 181.229C81.7556 181.147 81.9628 181.14 82.1498 181.21L84.9698 182.26C85.1396 182.318 85.2832 182.434 85.3745 182.589C85.4658 182.743 85.4987 182.925 85.4672 183.102C85.4358 183.278 85.3421 183.438 85.2031 183.551C85.0641 183.665 84.8891 183.725 84.7098 183.72ZM270.21 182.43C270.071 182.429 269.935 182.387 269.82 182.31C269.656 182.209 269.539 182.047 269.492 181.861C269.445 181.674 269.473 181.477 269.57 181.31C270.083 180.485 270.54 179.626 270.94 178.74C271.023 178.558 271.174 178.415 271.362 178.344C271.549 178.273 271.757 178.279 271.94 178.36C272.031 178.4 272.113 178.458 272.182 178.53C272.25 178.602 272.304 178.687 272.339 178.78C272.375 178.873 272.391 178.973 272.388 179.072C272.385 179.172 272.361 179.27 272.32 179.36C271.895 180.31 271.404 181.229 270.85 182.11C270.774 182.215 270.673 182.299 270.556 182.353C270.438 182.407 270.309 182.431 270.18 182.42L270.21 182.43ZM78.3298 181.3C78.234 181.303 78.1386 181.286 78.0498 181.25L75.2398 180.13C75.1451 180.094 75.0587 180.039 74.9858 179.968C74.913 179.898 74.8552 179.813 74.8159 179.72C74.7767 179.626 74.7568 179.526 74.7574 179.425C74.7581 179.323 74.7793 179.223 74.8198 179.13C74.8973 178.942 75.046 178.793 75.2333 178.714C75.4206 178.635 75.6314 178.634 75.8198 178.71L78.6198 179.83C78.7833 179.893 78.9197 180.011 79.0052 180.164C79.0907 180.317 79.1199 180.495 79.0878 180.667C79.0558 180.84 78.9644 180.995 78.8296 181.107C78.6948 181.219 78.525 181.28 78.3498 181.28L78.3298 181.3ZM72.0198 178.75C71.9212 178.748 71.8235 178.731 71.7298 178.7L68.9498 177.51C68.7668 177.432 68.6224 177.284 68.5483 177.099C68.4742 176.915 68.4765 176.708 68.5548 176.525C68.633 176.342 68.7807 176.198 68.9655 176.124C69.1502 176.049 69.3568 176.052 69.5398 176.13L72.3198 177.31C72.4793 177.378 72.6104 177.499 72.6907 177.653C72.7709 177.807 72.7955 177.983 72.7601 178.153C72.7248 178.323 72.6317 178.475 72.4967 178.584C72.3617 178.693 72.1932 178.751 72.0198 178.75ZM272.83 176.2H272.64C272.447 176.15 272.282 176.027 272.179 175.857C272.076 175.687 272.044 175.483 272.09 175.29V175.12C272.3 174.231 272.451 173.329 272.54 172.42C272.549 172.322 272.577 172.226 272.624 172.138C272.67 172.051 272.733 171.973 272.809 171.91C272.885 171.847 272.973 171.8 273.067 171.77C273.162 171.741 273.261 171.731 273.36 171.74C273.458 171.749 273.554 171.778 273.641 171.824C273.729 171.87 273.806 171.933 273.87 172.009C273.933 172.085 273.98 172.173 274.009 172.268C274.039 172.362 274.049 172.462 274.04 172.56C273.946 173.537 273.786 174.506 273.56 175.46V175.65C273.513 175.808 273.417 175.946 273.285 176.045C273.154 176.144 272.994 176.198 272.83 176.2ZM65.8298 176.06C65.7257 176.061 65.6229 176.037 65.5298 175.99C64.5998 175.58 63.6798 175.16 62.7698 174.74C62.6786 174.7 62.5963 174.642 62.528 174.57C62.4596 174.498 62.4066 174.412 62.3721 174.319C62.3375 174.225 62.3222 174.126 62.3269 174.027C62.3317 173.927 62.3565 173.83 62.3998 173.74C62.4407 173.65 62.4992 173.568 62.5717 173.501C62.6443 173.433 62.7296 173.381 62.8226 173.346C62.9156 173.312 63.0145 173.296 63.1135 173.3C63.2126 173.304 63.3099 173.328 63.3998 173.37L66.1398 174.61C66.3002 174.678 66.4318 174.8 66.5121 174.955C66.5923 175.11 66.6162 175.288 66.5795 175.458C66.5428 175.628 66.4479 175.781 66.3111 175.889C66.1742 175.997 66.0041 176.054 65.8298 176.05V176.06ZM59.6598 173.21C59.5491 173.212 59.4395 173.188 59.3398 173.14L56.6098 171.82C56.4345 171.73 56.3006 171.576 56.2354 171.39C56.1703 171.204 56.179 171 56.2598 170.82C56.3479 170.643 56.5025 170.508 56.6898 170.444C56.8771 170.38 57.0819 170.393 57.2598 170.48L59.9698 171.79C60.0592 171.832 60.1395 171.891 60.206 171.964C60.2726 172.037 60.324 172.122 60.3575 172.215C60.3909 172.308 60.4057 172.407 60.401 172.505C60.3962 172.604 60.372 172.701 60.3298 172.79C60.2637 172.923 60.1604 173.033 60.0325 173.108C59.9046 173.182 59.7577 173.218 59.6098 173.21H59.6598ZM53.5598 170.21C53.4416 170.212 53.3247 170.185 53.2198 170.13L50.5298 168.73C50.3579 168.637 50.2293 168.48 50.1714 168.293C50.1135 168.106 50.1309 167.904 50.2198 167.73C50.315 167.56 50.4718 167.433 50.6579 167.375C50.844 167.318 51.0451 167.334 51.2198 167.42C52.0998 167.89 52.9898 168.35 53.8898 168.81C54.0651 168.9 54.198 169.055 54.2598 169.242C54.3215 169.43 54.3072 169.633 54.2198 169.81C54.1493 169.935 54.0456 170.037 53.9202 170.106C53.7948 170.175 53.6527 170.207 53.5098 170.2L53.5598 170.21ZM273.41 169.46C273.221 169.461 273.039 169.39 272.9 169.262C272.761 169.134 272.675 168.958 272.66 168.77C272.585 167.796 272.448 166.827 272.25 165.87C272.234 165.684 272.287 165.499 272.399 165.349C272.51 165.2 272.673 165.097 272.856 165.06C273.039 165.023 273.229 165.054 273.39 165.149C273.551 165.243 273.672 165.393 273.73 165.57C273.935 166.587 274.079 167.616 274.16 168.65C274.168 168.749 274.157 168.848 274.126 168.942C274.096 169.036 274.047 169.123 273.983 169.199C273.919 169.274 273.841 169.336 273.753 169.381C273.665 169.425 273.568 169.452 273.47 169.46H273.41ZM47.5598 167.03C47.4341 167.031 47.3102 167 47.1998 166.94C46.2998 166.45 45.4198 165.94 44.5498 165.46C44.385 165.36 44.2638 165.202 44.2101 165.016C44.1564 164.831 44.1742 164.633 44.2598 164.46C44.3581 164.293 44.5171 164.171 44.7035 164.119C44.8898 164.067 45.0892 164.089 45.2598 164.18L47.8898 165.65C48.0599 165.745 48.1863 165.903 48.2423 166.089C48.2983 166.276 48.2795 166.477 48.1898 166.65C48.12 166.767 48.02 166.863 47.9004 166.928C47.7808 166.993 47.6459 167.025 47.5098 167.02L47.5598 167.03ZM41.6498 163.66C41.5165 163.661 41.3853 163.627 41.2698 163.56C40.3898 163.04 39.5298 162.51 38.6698 161.99C38.5193 161.876 38.4166 161.71 38.3815 161.525C38.3465 161.34 38.3817 161.148 38.4802 160.987C38.5787 160.826 38.7336 160.708 38.9146 160.655C39.0957 160.602 39.29 160.618 39.4598 160.7L42.0398 162.26C42.1842 162.343 42.2969 162.472 42.36 162.626C42.4231 162.78 42.4331 162.951 42.3884 163.111C42.3437 163.272 42.2468 163.413 42.1131 163.512C41.9793 163.612 41.8163 163.664 41.6498 163.66ZM271.98 162.84C271.824 162.841 271.672 162.793 271.545 162.703C271.418 162.614 271.322 162.487 271.27 162.34C270.96 161.44 270.59 160.52 270.17 159.6C270.089 159.417 270.083 159.209 270.154 159.022C270.225 158.835 270.367 158.683 270.55 158.6C270.64 158.558 270.738 158.535 270.838 158.532C270.937 158.529 271.036 158.545 271.129 158.58C271.223 158.616 271.308 158.669 271.38 158.738C271.452 158.807 271.51 158.889 271.55 158.98C271.99 159.93 272.37 160.9 272.7 161.84C272.739 161.936 272.759 162.038 272.757 162.141C272.755 162.245 272.731 162.347 272.688 162.441C272.645 162.534 272.583 162.618 272.506 162.687C272.429 162.756 272.338 162.808 272.24 162.84C272.137 162.859 272.031 162.856 271.93 162.83L271.98 162.84ZM35.8698 160.09C35.7246 160.089 35.5826 160.047 35.4598 159.97C34.6098 159.42 33.7598 158.86 32.9298 158.3C32.8477 158.246 32.7772 158.175 32.7222 158.094C32.6672 158.012 32.6289 157.92 32.6094 157.824C32.57 157.628 32.6097 157.426 32.7198 157.26C32.8298 157.094 33.0013 156.979 33.1963 156.94C33.3913 156.9 33.594 156.94 33.7598 157.05C34.5898 157.6 35.4298 158.16 36.2798 158.7C36.4363 158.808 36.5461 158.971 36.587 159.157C36.6278 159.342 36.5966 159.536 36.4998 159.7C36.4339 159.821 36.335 159.921 36.2147 159.988C36.0944 160.056 35.9574 160.087 35.8198 160.08L35.8698 160.09ZM269.13 156.68C268.994 156.683 268.86 156.65 268.742 156.583C268.624 156.516 268.527 156.418 268.46 156.3C267.98 155.46 267.46 154.62 266.89 153.77C266.835 153.687 266.798 153.595 266.779 153.497C266.76 153.4 266.761 153.3 266.781 153.203C266.801 153.106 266.84 153.014 266.895 152.932C266.951 152.85 267.022 152.78 267.105 152.725C267.187 152.671 267.28 152.633 267.377 152.614C267.475 152.595 267.575 152.596 267.672 152.616C267.769 152.636 267.861 152.675 267.943 152.731C268.025 152.786 268.095 152.857 268.15 152.94C268.73 153.81 269.27 154.69 269.76 155.55C269.852 155.719 269.875 155.918 269.825 156.104C269.775 156.29 269.655 156.45 269.49 156.55C269.366 156.624 269.224 156.666 269.08 156.67L269.13 156.68ZM30.1798 156.3C30.0248 156.303 29.8733 156.254 29.7498 156.16C28.9198 155.58 28.0898 154.98 27.2798 154.39C27.201 154.331 27.1346 154.257 27.0844 154.172C27.0342 154.087 27.0012 153.994 26.9873 153.896C26.9734 153.799 26.9788 153.699 27.0032 153.604C27.0277 153.508 27.0707 153.419 27.1298 153.34C27.2449 153.191 27.4124 153.092 27.5981 153.062C27.7839 153.032 27.974 153.075 28.1298 153.18L30.5698 154.93C30.7037 155.021 30.8046 155.153 30.8573 155.306C30.91 155.459 30.9117 155.625 30.8622 155.78C30.8126 155.934 30.7145 156.068 30.5825 156.162C30.4505 156.255 30.2917 156.304 30.1298 156.3H30.1798ZM24.7198 152.25C24.5528 152.25 24.3907 152.194 24.2598 152.09C23.4498 151.46 22.6498 150.82 21.8898 150.19C21.7361 150.063 21.6384 149.881 21.6179 149.683C21.5973 149.484 21.6554 149.286 21.7798 149.13C21.8426 149.054 21.9199 148.99 22.0073 148.944C22.0947 148.897 22.1904 148.869 22.289 148.859C22.3875 148.85 22.4869 148.86 22.5814 148.89C22.676 148.919 22.7638 148.967 22.8398 149.03C23.5998 149.65 24.3898 150.28 25.1898 150.9C25.3443 151.026 25.4442 151.206 25.4684 151.404C25.4926 151.601 25.4394 151.801 25.3198 151.96C25.2464 152.047 25.1544 152.117 25.0505 152.163C24.9467 152.21 24.8336 152.233 24.7198 152.23V152.25ZM265.29 151.06C265.174 151.06 265.061 151.033 264.957 150.983C264.853 150.933 264.762 150.86 264.69 150.77C264.1 150 263.47 149.22 262.82 148.45C262.69 148.296 262.627 148.097 262.643 147.896C262.66 147.696 262.756 147.51 262.91 147.38C262.985 147.316 263.072 147.268 263.167 147.238C263.261 147.207 263.36 147.196 263.458 147.205C263.557 147.213 263.653 147.241 263.741 147.286C263.828 147.332 263.906 147.394 263.97 147.47C264.64 148.26 265.28 149.06 265.89 149.85C266.01 150.008 266.063 150.207 266.037 150.404C266.011 150.601 265.907 150.779 265.75 150.9C265.616 150.997 265.454 151.046 265.29 151.04V151.06ZM19.4598 147.9C19.2759 147.898 19.0988 147.83 18.9598 147.71C18.1898 147.03 17.4298 146.34 16.7098 145.66C16.5693 145.519 16.4904 145.329 16.4904 145.13C16.4904 144.931 16.5693 144.741 16.7098 144.6C16.8533 144.461 17.0452 144.384 17.2448 144.384C17.4444 144.384 17.6362 144.461 17.7798 144.6C18.4898 145.27 19.2398 145.95 19.9998 146.6C20.1118 146.703 20.1904 146.837 20.2255 146.984C20.2606 147.132 20.2506 147.287 20.1968 147.429C20.143 147.571 20.0478 147.694 19.9236 147.782C19.7993 147.869 19.6517 147.917 19.4998 147.92L19.4598 147.9ZM260.85 145.9C260.746 145.901 260.644 145.88 260.549 145.838C260.455 145.797 260.37 145.736 260.3 145.66C259.63 144.95 258.93 144.23 258.21 143.52C258.069 143.378 257.99 143.185 257.99 142.985C257.99 142.785 258.069 142.592 258.21 142.45C258.353 142.311 258.545 142.234 258.745 142.234C258.944 142.234 259.136 142.311 259.28 142.45C260.01 143.18 260.72 143.91 261.4 144.64C261.54 144.781 261.619 144.971 261.619 145.17C261.619 145.369 261.54 145.559 261.4 145.7C261.257 145.826 261.07 145.89 260.88 145.88L260.85 145.9ZM14.5198 143.25C14.4196 143.251 14.3203 143.232 14.2275 143.195C14.1348 143.157 14.0505 143.101 13.9798 143.03C13.2598 142.29 12.5498 141.55 11.8798 140.81C11.8141 140.736 11.7636 140.651 11.7311 140.558C11.6985 140.465 11.6847 140.366 11.6902 140.268C11.6958 140.169 11.7207 140.073 11.7635 139.984C11.8064 139.895 11.8662 139.816 11.9398 139.75C12.0133 139.684 12.0991 139.634 12.1921 139.601C12.2852 139.569 12.3838 139.555 12.4822 139.56C12.5806 139.566 12.677 139.591 12.7658 139.634C12.8546 139.677 12.9341 139.736 12.9998 139.81C13.6498 140.53 14.3398 141.26 15.0498 141.98C15.1208 142.05 15.1773 142.133 15.2158 142.225C15.2543 142.317 15.2742 142.415 15.2742 142.515C15.2742 142.615 15.2543 142.713 15.2158 142.805C15.1773 142.897 15.1208 142.98 15.0498 143.05C14.9116 143.171 14.7331 143.235 14.5498 143.23L14.5198 143.25ZM256 141.13C255.812 141.133 255.63 141.065 255.49 140.94C254.77 140.28 254.02 139.61 253.24 138.94C253.165 138.874 253.104 138.795 253.06 138.705C253.016 138.616 252.99 138.519 252.983 138.42C252.977 138.32 252.99 138.221 253.022 138.126C253.054 138.032 253.104 137.945 253.17 137.87C253.235 137.795 253.315 137.734 253.405 137.69C253.494 137.646 253.591 137.62 253.69 137.613C253.79 137.607 253.889 137.62 253.984 137.652C254.078 137.684 254.165 137.734 254.24 137.8C255.02 138.47 255.79 139.15 256.52 139.8C256.66 139.941 256.739 140.131 256.739 140.33C256.739 140.529 256.66 140.719 256.52 140.86C256.395 141.003 256.219 141.093 256.03 141.11L256 141.13ZM9.99978 138.2C9.88929 138.2 9.78016 138.176 9.67999 138.129C9.57982 138.082 9.49102 138.014 9.41978 137.93C8.75978 137.12 8.12978 136.31 7.54978 135.51C7.43175 135.35 7.38231 135.149 7.41232 134.952C7.44232 134.755 7.54932 134.578 7.70978 134.46C7.87024 134.342 8.071 134.293 8.26791 134.323C8.46483 134.353 8.64176 134.46 8.75978 134.62C9.32978 135.39 9.94978 136.19 10.5898 136.97C10.7141 137.126 10.7723 137.324 10.7517 137.523C10.7311 137.721 10.6335 137.903 10.4798 138.03C10.343 138.136 10.1726 138.189 9.99978 138.18V138.2ZM250.86 136.7C250.689 136.696 250.524 136.637 250.39 136.53C249.63 135.92 248.83 135.29 248.03 134.68C247.939 134.624 247.861 134.55 247.801 134.462C247.741 134.375 247.7 134.275 247.681 134.171C247.662 134.066 247.665 133.959 247.689 133.855C247.714 133.752 247.76 133.655 247.825 133.57C247.89 133.486 247.972 133.416 248.065 133.365C248.158 133.315 248.261 133.284 248.367 133.275C248.473 133.267 248.58 133.281 248.68 133.316C248.781 133.351 248.872 133.407 248.95 133.48C249.76 134.11 250.56 134.74 251.33 135.36C251.408 135.421 251.473 135.498 251.521 135.584C251.569 135.671 251.6 135.766 251.611 135.865C251.622 135.964 251.614 136.063 251.586 136.159C251.558 136.254 251.512 136.343 251.45 136.42C251.378 136.507 251.288 136.577 251.186 136.626C251.084 136.674 250.973 136.699 250.86 136.7ZM6.02978 132.7C5.90196 132.702 5.77582 132.671 5.66366 132.609C5.5515 132.548 5.45714 132.459 5.38978 132.35C4.82978 131.47 4.30978 130.57 3.83978 129.7C3.75342 129.525 3.73744 129.324 3.79513 129.138C3.85282 128.952 3.97978 128.795 4.14978 128.7C4.32398 128.611 4.52601 128.594 4.71282 128.652C4.89962 128.71 5.05642 128.838 5.14978 129.01C5.59978 129.85 6.14978 130.71 6.63978 131.57C6.73568 131.735 6.76528 131.93 6.72256 132.116C6.67984 132.301 6.568 132.464 6.40978 132.57C6.29338 132.636 6.16327 132.673 6.02978 132.68V132.7ZM2.88978 126.7C2.74058 126.702 2.59428 126.659 2.46958 126.577C2.34489 126.495 2.24747 126.378 2.18978 126.24C1.78978 125.24 1.43978 124.24 1.18978 123.33C1.13143 123.139 1.15133 122.933 1.2451 122.756C1.33886 122.58 1.49883 122.448 1.68978 122.39C1.88074 122.332 2.08705 122.352 2.26333 122.445C2.43961 122.539 2.57143 122.699 2.62978 122.89C2.90978 123.8 3.23978 124.73 3.62978 125.66C3.70644 125.847 3.70642 126.057 3.6297 126.244C3.55299 126.431 3.40575 126.581 3.21978 126.66C3.1111 126.682 2.99957 126.685 2.88978 126.67V126.7ZM1.02978 120.2C0.848535 120.202 0.672715 120.138 0.534837 120.021C0.396959 119.903 0.306352 119.739 0.279779 119.56C0.122966 118.537 0.0294557 117.505 -0.0002199 116.47C-0.00287789 116.371 0.0142297 116.272 0.0501036 116.179C0.0859775 116.087 0.1399 116.002 0.208749 115.93C0.277599 115.859 0.359997 115.801 0.451158 115.762C0.542319 115.722 0.640425 115.701 0.739778 115.7C0.935273 115.7 1.12307 115.776 1.26316 115.913C1.40325 116.049 1.48456 116.235 1.48978 116.43C1.51275 117.401 1.5996 118.37 1.74978 119.33C1.7654 119.428 1.76147 119.528 1.73819 119.624C1.71492 119.721 1.67277 119.811 1.61418 119.891C1.5556 119.971 1.48174 120.039 1.39687 120.09C1.31201 120.141 1.21783 120.175 1.11978 120.19L1.02978 120.2ZM1.02978 113.44H0.909776C0.71293 113.408 0.536559 113.3 0.418703 113.139C0.300846 112.978 0.25095 112.777 0.279779 112.58C0.369779 112.02 0.479781 111.45 0.609781 110.9C0.739781 110.35 0.839776 109.98 0.979776 109.53C1.00834 109.435 1.05538 109.347 1.11817 109.271C1.18097 109.194 1.25829 109.131 1.34567 109.084C1.43305 109.038 1.52876 109.009 1.6273 109C1.72583 108.99 1.82524 109.001 1.91978 109.03C2.10964 109.09 2.26839 109.222 2.36189 109.398C2.4554 109.574 2.47618 109.779 2.41978 109.97C2.28978 110.39 2.17978 110.82 2.06978 111.25C1.95978 111.68 1.84978 112.25 1.76978 112.81C1.73231 112.985 1.63463 113.14 1.49384 113.25C1.35306 113.36 1.17815 113.416 0.99978 113.41L1.02978 113.44ZM3.12978 107.01C3.00875 107.009 2.88942 106.981 2.77978 106.93C2.60803 106.837 2.47893 106.68 2.41934 106.494C2.35974 106.308 2.37422 106.106 2.45978 105.93C2.93443 105.006 3.4689 104.114 4.05978 103.26C4.11662 103.179 4.18896 103.11 4.27263 103.057C4.3563 103.004 4.44964 102.968 4.54727 102.951C4.64489 102.934 4.74486 102.937 4.84141 102.959C4.93796 102.981 5.02917 103.022 5.10978 103.08C5.26338 103.191 5.36868 103.356 5.40402 103.542C5.43937 103.728 5.40206 103.921 5.29978 104.08C4.74373 104.878 4.24258 105.714 3.79978 106.58C3.73236 106.706 3.63097 106.81 3.50719 106.88C3.38341 106.951 3.24223 106.986 3.09978 106.98L3.12978 107.01ZM7.05978 101.5C6.90358 101.514 6.74684 101.48 6.61106 101.401C6.47528 101.323 6.36712 101.204 6.30139 101.062C6.23567 100.919 6.21561 100.76 6.24397 100.606C6.27232 100.451 6.34771 100.31 6.45978 100.2C7.14978 99.47 7.88978 98.74 8.67978 98.05C8.82988 97.9166 9.02666 97.8481 9.22715 97.8593C9.42764 97.8706 9.61553 97.9607 9.74978 98.11C9.87948 98.2625 9.94471 98.4595 9.93164 98.6592C9.91857 98.859 9.82824 99.0458 9.67978 99.18C8.94261 99.8276 8.23839 100.512 7.56978 101.23C7.50071 101.305 7.41724 101.364 7.32441 101.405C7.23159 101.447 7.13135 101.469 7.02978 101.47L7.05978 101.5ZM12.1798 97.05C12.0607 97.0513 11.943 97.0237 11.8368 96.9698C11.7306 96.9158 11.639 96.837 11.5698 96.74C11.5117 96.66 11.4701 96.5693 11.4472 96.4731C11.4243 96.377 11.4206 96.2772 11.4364 96.1797C11.4522 96.0821 11.4872 95.9886 11.5392 95.9046C11.5913 95.8205 11.6594 95.7476 11.7398 95.69C12.5498 95.11 13.4198 94.54 14.2998 93.99C14.3844 93.926 14.4814 93.8804 14.5847 93.8562C14.688 93.832 14.7952 93.8296 14.8995 93.8493C15.0037 93.869 15.1027 93.9104 15.19 93.9706C15.2773 94.0309 15.351 94.1087 15.4064 94.1992C15.4618 94.2897 15.4977 94.3908 15.5117 94.4959C15.5257 94.6011 15.5175 94.708 15.4877 94.8098C15.4578 94.9116 15.407 95.006 15.3385 95.087C15.27 95.168 15.1852 95.2338 15.0898 95.28C14.2298 95.8 13.3998 96.35 12.6198 96.91C12.4798 96.9982 12.3143 97.0369 12.1498 97.02L12.1798 97.05ZM17.9898 93.54C17.8511 93.5403 17.7151 93.5021 17.5968 93.4298C17.4785 93.3574 17.3826 93.2536 17.3198 93.13C17.2342 92.9542 17.2197 92.7521 17.2793 92.5659C17.3389 92.3796 17.468 92.2235 17.6398 92.13C18.5298 91.68 19.4498 91.23 20.3998 90.8C20.5815 90.7178 20.7883 90.7111 20.9749 90.7814C21.1615 90.8518 21.3126 90.9933 21.3948 91.175C21.477 91.3567 21.4837 91.5636 21.4133 91.7502C21.343 91.9368 21.2015 92.0878 21.0198 92.17C20.0998 92.59 19.1898 93.03 18.3298 93.47C18.2124 93.517 18.0844 93.5308 17.9598 93.51L17.9898 93.54ZM24.1898 90.76C24.038 90.7615 23.8893 90.7162 23.7641 90.6303C23.6389 90.5445 23.5431 90.4222 23.4898 90.28C23.4507 90.1869 23.4307 90.0869 23.4307 89.9859C23.4307 89.885 23.4509 89.785 23.49 89.6919C23.5291 89.5988 23.5863 89.5144 23.6584 89.4437C23.7305 89.373 23.8159 89.3174 23.9098 89.28C24.8398 88.93 25.7998 88.57 26.7798 88.23C26.9628 88.1881 27.1549 88.2155 27.3189 88.3068C27.483 88.3981 27.6075 88.5469 27.6684 88.7245C27.7292 88.9021 27.7222 89.096 27.6486 89.2687C27.575 89.4415 27.44 89.5809 27.2698 89.66C26.2698 89.99 25.3698 90.34 24.4598 90.66C24.3648 90.7012 24.2632 90.7249 24.1598 90.73L24.1898 90.76ZM30.6198 88.56C30.4588 88.5607 30.3018 88.5095 30.1722 88.414C30.0425 88.3186 29.947 88.184 29.8998 88.03C29.8434 87.8391 29.8642 87.6336 29.9577 87.4578C30.0512 87.282 30.2099 87.15 30.3998 87.09C31.3998 86.81 32.3398 86.53 33.3298 86.27C33.5221 86.2183 33.727 86.2451 33.8995 86.3445C34.0721 86.4439 34.1981 86.6077 34.2498 86.8C34.3015 86.9923 34.2747 87.1973 34.1753 87.3698C34.0759 87.5423 33.9121 87.6683 33.7198 87.72C32.7198 87.98 31.7198 88.25 30.8298 88.53C30.7509 88.5491 30.6686 88.5491 30.5898 88.53L30.6198 88.56ZM37.1898 86.84C37.0099 86.831 36.8391 86.7584 36.7078 86.6352C36.5765 86.5119 36.4932 86.346 36.4728 86.1671C36.4524 85.9882 36.4961 85.8079 36.5963 85.6582C36.6965 85.5086 36.8466 85.3993 37.0198 85.35C38.0198 85.13 39.0198 84.91 40.0198 84.71C40.2069 84.6904 40.3947 84.7409 40.5468 84.8517C40.6989 84.9626 40.8044 85.1259 40.843 85.3101C40.8816 85.4942 40.8504 85.6862 40.7556 85.8488C40.6608 86.0113 40.5091 86.1329 40.3298 86.19C39.3298 86.39 38.3298 86.6 37.3898 86.82L37.1898 86.84Z" fill="url(#paint2_linear_1_78)"/>
<path d="M43.9399 85.45C43.7508 85.4521 43.568 85.3827 43.4279 85.2558C43.2879 85.1288 43.2009 84.9536 43.1845 84.7653C43.168 84.5769 43.2234 84.3893 43.3393 84.24C43.4553 84.0907 43.6233 83.9907 43.8099 83.96L45.3099 83.71C45.5032 83.6846 45.6989 83.7354 45.8554 83.8519C46.0119 83.9683 46.1169 84.141 46.1481 84.3336C46.1793 84.5261 46.1343 84.7232 46.0226 84.8831C45.9109 85.043 45.7414 85.1531 45.5499 85.19L44.0699 85.44L43.9399 85.45Z" fill="url(#paint3_linear_1_78)"/>
</g>
<path opacity="0.7" d="M150.97 228.37C150.762 228.347 150.569 228.249 150.429 228.093C150.29 227.937 150.212 227.734 150.212 227.525C150.212 227.315 150.29 227.113 150.429 226.957C150.569 226.801 150.762 226.703 150.97 226.68C151.52 226.68 152.09 226.68 152.64 226.6C153.19 226.52 153.71 226.5 154.25 226.43C154.365 226.405 154.484 226.405 154.599 226.428C154.714 226.452 154.823 226.499 154.919 226.566C155.015 226.634 155.096 226.721 155.156 226.822C155.217 226.922 155.256 227.034 155.272 227.151C155.287 227.267 155.278 227.385 155.245 227.498C155.212 227.611 155.156 227.716 155.081 227.806C155.006 227.896 154.913 227.97 154.807 228.022C154.702 228.074 154.587 228.104 154.47 228.11L152.77 228.29C152.18 228.29 151.59 228.36 151 228.37H150.97ZM146.75 228.15H146.65C145.5 228.011 144.358 227.807 143.23 227.54C143.028 227.474 142.859 227.335 142.754 227.15C142.65 226.965 142.618 226.748 142.666 226.541C142.713 226.334 142.837 226.153 143.012 226.032C143.186 225.912 143.4 225.861 143.61 225.89C144.679 226.14 145.761 226.334 146.85 226.47C147.06 226.502 147.25 226.611 147.383 226.775C147.517 226.94 147.584 227.149 147.571 227.361C147.559 227.572 147.468 227.772 147.316 227.92C147.164 228.067 146.962 228.153 146.75 228.16V228.15ZM158.46 227.3C158.254 227.302 158.054 227.228 157.898 227.093C157.742 226.958 157.64 226.77 157.612 226.566C157.584 226.361 157.631 226.154 157.745 225.982C157.858 225.809 158.031 225.684 158.23 225.63C159.289 225.339 160.331 224.988 161.35 224.58C161.453 224.538 161.563 224.517 161.675 224.517C161.786 224.518 161.896 224.541 161.998 224.585C162.101 224.629 162.193 224.692 162.271 224.772C162.348 224.852 162.409 224.946 162.45 225.05C162.532 225.258 162.529 225.491 162.441 225.697C162.353 225.903 162.188 226.066 161.98 226.15C160.905 226.581 159.807 226.952 158.69 227.26C158.617 227.288 158.539 227.301 158.46 227.3ZM139.37 226.3C139.267 226.299 139.165 226.279 139.07 226.24C138.01 225.85 136.94 225.4 135.89 224.89C135.688 224.793 135.532 224.619 135.457 224.408C135.382 224.196 135.394 223.963 135.49 223.76C135.538 223.66 135.606 223.57 135.689 223.496C135.772 223.422 135.868 223.365 135.974 223.329C136.079 223.293 136.19 223.278 136.301 223.285C136.412 223.292 136.52 223.321 136.62 223.37C137.62 223.85 138.62 224.28 139.62 224.66C139.802 224.732 139.954 224.865 140.049 225.036C140.145 225.207 140.178 225.405 140.144 225.598C140.11 225.791 140.01 225.966 139.862 226.094C139.714 226.222 139.526 226.295 139.33 226.3H139.37ZM165.5 224.3C165.312 224.3 165.129 224.238 164.98 224.124C164.831 224.009 164.724 223.849 164.676 223.667C164.628 223.485 164.642 223.293 164.715 223.12C164.788 222.947 164.916 222.802 165.08 222.71C166.03 222.19 166.98 221.6 167.9 220.98C167.993 220.918 168.097 220.874 168.206 220.852C168.315 220.83 168.428 220.829 168.538 220.851C168.647 220.872 168.752 220.915 168.845 220.976C168.938 221.038 169.018 221.117 169.08 221.21C169.142 221.302 169.186 221.405 169.208 221.514C169.23 221.622 169.23 221.734 169.209 221.843C169.187 221.952 169.145 222.055 169.083 222.147C169.022 222.239 168.942 222.319 168.85 222.38C167.85 223.03 166.85 223.64 165.91 224.19C165.779 224.289 165.623 224.351 165.46 224.37L165.5 224.3ZM132.5 222.92C132.349 222.919 132.2 222.878 132.07 222.8C131.07 222.21 130.14 221.57 129.19 220.9C129.007 220.767 128.884 220.567 128.849 220.344C128.813 220.121 128.867 219.893 129 219.71C129.133 219.527 129.333 219.404 129.556 219.369C129.779 219.333 130.007 219.387 130.19 219.52C131.1 220.17 132.04 220.78 132.97 221.35C133.065 221.407 133.148 221.483 133.213 221.573C133.279 221.662 133.326 221.764 133.352 221.872C133.378 221.979 133.382 222.091 133.365 222.201C133.347 222.311 133.308 222.416 133.25 222.51C133.183 222.646 133.081 222.763 132.955 222.847C132.828 222.931 132.682 222.981 132.53 222.99L132.5 222.92ZM171.71 219.98C171.587 219.98 171.466 219.952 171.355 219.898C171.244 219.844 171.147 219.766 171.07 219.67C170.998 219.586 170.943 219.488 170.909 219.382C170.875 219.276 170.862 219.165 170.872 219.054C170.881 218.943 170.912 218.836 170.963 218.737C171.015 218.639 171.085 218.551 171.17 218.48C172 217.79 172.83 217.04 173.64 216.25C173.804 216.108 174.017 216.034 174.234 216.044C174.451 216.054 174.656 216.146 174.807 216.302C174.958 216.458 175.043 216.666 175.046 216.884C175.048 217.101 174.967 217.31 174.82 217.47C173.98 218.28 173.12 219.06 172.26 219.78C172.123 219.927 171.939 220.023 171.74 220.05L171.71 219.98ZM126.33 218.46C126.134 218.461 125.943 218.394 125.79 218.27C124.93 217.54 124.07 216.78 123.22 215.98C123.083 215.821 123.01 215.616 123.015 215.406C123.02 215.196 123.102 214.996 123.246 214.843C123.39 214.69 123.586 214.596 123.795 214.579C124.005 214.562 124.213 214.623 124.38 214.75C125.2 215.52 126.04 216.27 126.88 216.97C127.015 217.081 127.113 217.231 127.159 217.4C127.205 217.568 127.197 217.747 127.136 217.911C127.076 218.075 126.966 218.216 126.821 218.315C126.676 218.413 126.505 218.464 126.33 218.46ZM177.15 214.65C176.987 214.65 176.827 214.603 176.689 214.515C176.552 214.426 176.443 214.3 176.376 214.151C176.308 214.003 176.285 213.837 176.309 213.676C176.333 213.514 176.402 213.363 176.51 213.24C177.23 212.43 177.95 211.57 178.64 210.68C178.695 210.568 178.775 210.47 178.872 210.392C178.969 210.315 179.083 210.259 179.204 210.23C179.325 210.201 179.451 210.199 179.573 210.224C179.695 210.249 179.81 210.301 179.91 210.376C180.01 210.45 180.093 210.546 180.151 210.656C180.21 210.766 180.244 210.887 180.251 211.011C180.257 211.136 180.237 211.26 180.19 211.376C180.143 211.491 180.071 211.595 179.98 211.68C179.26 212.6 178.52 213.48 177.78 214.32C177.716 214.427 177.628 214.518 177.525 214.587C177.421 214.656 177.303 214.701 177.18 214.72L177.15 214.65ZM181.81 208.65C181.639 208.648 181.472 208.596 181.33 208.5C181.146 208.371 181.021 208.174 180.982 207.953C180.942 207.732 180.992 207.505 181.12 207.32C181.74 206.42 182.35 205.48 182.95 204.52C183.078 204.351 183.264 204.235 183.472 204.196C183.68 204.157 183.896 204.197 184.076 204.308C184.256 204.42 184.388 204.594 184.447 204.798C184.505 205.002 184.485 205.22 184.39 205.41C183.78 206.41 183.15 207.36 182.51 208.28C182.443 208.401 182.346 208.504 182.229 208.579C182.112 208.654 181.979 208.699 181.84 208.71L181.81 208.65ZM185.81 202.16C185.663 202.161 185.518 202.124 185.39 202.051C185.262 201.979 185.155 201.874 185.08 201.748C185.005 201.621 184.965 201.477 184.963 201.33C184.961 201.183 184.998 201.038 185.07 200.91C185.61 199.91 186.13 198.91 186.64 197.91C186.745 197.712 186.922 197.563 187.135 197.494C187.348 197.425 187.579 197.441 187.78 197.54C187.88 197.59 187.969 197.659 188.042 197.743C188.115 197.828 188.17 197.926 188.204 198.032C188.239 198.139 188.252 198.25 188.242 198.362C188.233 198.473 188.202 198.581 188.15 198.68C187.64 199.68 187.1 200.68 186.55 201.68C186.495 201.828 186.4 201.958 186.274 202.053C186.148 202.149 185.998 202.207 185.84 202.22L185.81 202.16ZM189.23 195.36C189.109 195.359 188.99 195.331 188.88 195.28C188.778 195.235 188.687 195.17 188.611 195.089C188.534 195.007 188.475 194.912 188.436 194.808C188.397 194.704 188.379 194.593 188.383 194.481C188.387 194.37 188.413 194.261 188.46 194.16C188.91 193.16 189.36 192.16 189.8 191.08C189.834 190.965 189.891 190.859 189.969 190.768C190.046 190.678 190.142 190.604 190.25 190.553C190.357 190.501 190.475 190.473 190.594 190.47C190.714 190.467 190.832 190.489 190.942 190.535C191.053 190.581 191.152 190.65 191.234 190.737C191.316 190.824 191.378 190.927 191.418 191.039C191.457 191.152 191.472 191.272 191.463 191.391C191.453 191.51 191.418 191.625 191.36 191.73C190.92 192.79 190.46 193.84 190 194.86C189.944 195.015 189.845 195.15 189.713 195.25C189.582 195.349 189.424 195.408 189.26 195.42L189.23 195.36ZM192.14 188.31C192.038 188.313 191.936 188.296 191.84 188.26C191.63 188.181 191.459 188.022 191.365 187.818C191.271 187.614 191.262 187.381 191.34 187.17C191.73 186.17 192.11 185.07 192.48 184C192.568 183.808 192.724 183.656 192.918 183.572C193.112 183.489 193.33 183.481 193.529 183.55C193.729 183.618 193.896 183.759 193.998 183.944C194.1 184.128 194.129 184.345 194.08 184.55C193.71 185.64 193.32 186.72 192.93 187.76C192.881 187.927 192.782 188.076 192.646 188.185C192.51 188.294 192.344 188.359 192.17 188.37L192.14 188.31ZM194.59 181.1C194.507 181.114 194.423 181.114 194.34 181.1C194.234 181.068 194.136 181.015 194.05 180.945C193.965 180.875 193.894 180.789 193.842 180.691C193.79 180.594 193.758 180.487 193.747 180.377C193.737 180.267 193.748 180.156 193.78 180.05C194.1 178.99 194.42 177.9 194.73 176.81C194.795 176.596 194.941 176.415 195.137 176.307C195.333 176.198 195.564 176.171 195.78 176.23C195.986 176.291 196.162 176.428 196.269 176.614C196.377 176.8 196.41 177.021 196.36 177.23C196.05 178.33 195.73 179.43 195.36 180.5C195.321 180.674 195.229 180.831 195.096 180.949C194.964 181.067 194.797 181.141 194.62 181.16L194.59 181.1ZM196.59 173.76H196.39C196.176 173.708 195.992 173.574 195.876 173.387C195.76 173.2 195.722 172.975 195.77 172.76C196.04 171.68 196.31 170.58 196.56 169.48C196.584 169.373 196.628 169.271 196.692 169.181C196.755 169.091 196.835 169.014 196.928 168.956C197.021 168.897 197.125 168.858 197.234 168.84C197.342 168.821 197.453 168.825 197.56 168.85C197.778 168.898 197.967 169.03 198.087 169.218C198.207 169.405 198.248 169.633 198.2 169.85C197.94 170.96 197.68 172.07 197.41 173.16C197.369 173.334 197.275 173.492 197.141 173.61C197.006 173.728 196.838 173.802 196.66 173.82L196.59 173.76ZM198.27 166.33H198.1C197.88 166.284 197.688 166.153 197.564 165.966C197.44 165.779 197.396 165.55 197.44 165.33C197.66 164.24 197.87 163.13 198.07 162.02C198.09 161.911 198.131 161.807 198.191 161.714C198.251 161.621 198.328 161.54 198.419 161.477C198.51 161.414 198.613 161.369 198.721 161.346C198.829 161.322 198.941 161.32 199.05 161.34C199.159 161.36 199.263 161.401 199.356 161.461C199.449 161.52 199.53 161.598 199.593 161.689C199.656 161.78 199.701 161.883 199.724 161.991C199.748 162.099 199.75 162.211 199.73 162.32C199.53 163.44 199.32 164.56 199.1 165.67C199.072 165.858 198.982 166.03 198.844 166.161C198.706 166.291 198.529 166.372 198.34 166.39L198.27 166.33ZM199.6 158.82H199.47C199.357 158.803 199.248 158.764 199.15 158.704C199.053 158.644 198.968 158.565 198.902 158.471C198.836 158.378 198.789 158.272 198.764 158.16C198.74 158.048 198.739 157.932 198.76 157.82C198.93 156.72 199.1 155.59 199.25 154.48C199.265 154.37 199.301 154.264 199.357 154.169C199.413 154.073 199.487 153.989 199.575 153.922C199.664 153.855 199.764 153.807 199.871 153.779C199.979 153.751 200.09 153.744 200.2 153.76C200.423 153.79 200.624 153.907 200.761 154.085C200.898 154.262 200.958 154.487 200.93 154.71C200.77 155.83 200.61 156.97 200.44 158.08C200.427 158.283 200.342 158.474 200.201 158.621C200.061 158.767 199.872 158.859 199.67 158.88L199.6 158.82ZM200.6 151.27H200.5C200.279 151.24 200.078 151.125 199.94 150.95C199.802 150.774 199.737 150.552 199.76 150.33C199.88 149.22 200 148.09 200.11 146.98C200.121 146.87 200.153 146.763 200.205 146.665C200.257 146.567 200.327 146.48 200.413 146.409C200.498 146.339 200.597 146.286 200.703 146.253C200.808 146.221 200.92 146.209 201.03 146.22C201.14 146.231 201.248 146.263 201.345 146.315C201.443 146.366 201.53 146.437 201.601 146.523C201.671 146.608 201.724 146.707 201.757 146.812C201.789 146.918 201.801 147.03 201.79 147.14C201.68 148.26 201.57 149.4 201.44 150.52C201.425 150.718 201.34 150.905 201.201 151.048C201.063 151.19 200.878 151.28 200.68 151.3L200.6 151.27ZM201.31 143.68H201.24C201.018 143.662 200.812 143.558 200.666 143.389C200.52 143.221 200.446 143.002 200.46 142.78C200.54 141.66 200.62 140.53 200.68 139.41C200.676 139.292 200.697 139.174 200.741 139.065C200.786 138.955 200.852 138.856 200.937 138.774C201.021 138.691 201.122 138.627 201.233 138.586C201.344 138.545 201.462 138.527 201.58 138.534C201.698 138.541 201.813 138.573 201.918 138.627C202.023 138.681 202.116 138.756 202.19 138.848C202.265 138.94 202.319 139.046 202.35 139.16C202.381 139.274 202.388 139.393 202.37 139.51C202.31 140.64 202.23 141.78 202.15 142.9C202.149 143.109 202.071 143.31 201.93 143.465C201.79 143.62 201.598 143.718 201.39 143.74L201.31 143.68ZM201.72 136.08C201.496 136.07 201.284 135.972 201.131 135.807C200.977 135.643 200.895 135.425 200.9 135.2C200.95 134.08 200.98 132.96 201 131.83C201.005 131.606 201.099 131.394 201.26 131.238C201.421 131.083 201.636 130.997 201.86 131C201.971 131.001 202.081 131.025 202.183 131.069C202.285 131.113 202.378 131.177 202.455 131.257C202.532 131.337 202.593 131.431 202.633 131.535C202.673 131.638 202.693 131.749 202.69 131.86C202.69 133 202.69 134.13 202.6 135.26C202.606 135.481 202.526 135.697 202.377 135.861C202.228 136.025 202.021 136.125 201.8 136.14L201.72 136.08ZM201.86 128.44C201.749 128.443 201.639 128.423 201.536 128.383C201.433 128.342 201.339 128.281 201.26 128.204C201.181 128.127 201.118 128.034 201.075 127.932C201.032 127.83 201.01 127.721 201.01 127.61C201.01 126.5 201.01 125.39 201.01 124.28C201.007 124.169 201.027 124.058 201.067 123.955C201.108 123.851 201.168 123.757 201.245 123.677C201.323 123.597 201.415 123.533 201.517 123.489C201.619 123.445 201.729 123.421 201.84 123.42C202.062 123.42 202.275 123.507 202.434 123.662C202.593 123.817 202.685 124.028 202.69 124.25C202.69 125.38 202.69 126.5 202.69 127.61C202.699 127.825 202.627 128.036 202.488 128.201C202.35 128.366 202.154 128.473 201.94 128.5L201.86 128.44ZM201.72 120.84C201.501 120.838 201.292 120.751 201.136 120.598C200.979 120.446 200.888 120.238 200.88 120.02C200.88 118.9 200.79 117.78 200.74 116.65C200.729 116.426 200.807 116.207 200.957 116.04C201.107 115.874 201.316 115.773 201.54 115.76C201.765 115.752 201.984 115.832 202.15 115.983C202.317 116.135 202.417 116.345 202.43 116.57C202.49 117.7 202.53 118.84 202.57 119.96C202.578 120.184 202.498 120.402 202.346 120.567C202.194 120.731 201.984 120.83 201.76 120.84H201.72ZM201.46 113.3C201.246 113.3 201.039 113.219 200.883 113.072C200.727 112.925 200.633 112.724 200.62 112.51C200.62 111.95 200.54 111.39 200.49 110.84C200.44 110.29 200.41 109.71 200.36 109.15C200.342 109.035 200.348 108.917 200.378 108.804C200.408 108.691 200.46 108.586 200.533 108.494C200.605 108.403 200.695 108.327 200.798 108.272C200.901 108.216 201.014 108.183 201.13 108.173C201.246 108.164 201.363 108.178 201.474 108.216C201.584 108.253 201.686 108.313 201.772 108.392C201.858 108.47 201.928 108.565 201.975 108.672C202.023 108.778 202.049 108.893 202.05 109.01C202.05 109.57 202.14 110.14 202.18 110.71C202.22 111.28 202.27 111.83 202.31 112.4C202.324 112.624 202.248 112.844 202.1 113.013C201.953 113.181 201.744 113.285 201.52 113.3H201.46ZM200.81 105.71C200.6 105.711 200.398 105.633 200.243 105.493C200.087 105.352 199.99 105.159 199.97 104.95C199.85 103.83 199.73 102.71 199.6 101.6C199.585 101.489 199.592 101.377 199.621 101.269C199.65 101.161 199.701 101.06 199.77 100.972C199.839 100.885 199.925 100.812 200.023 100.758C200.121 100.704 200.229 100.671 200.34 100.66C200.563 100.635 200.786 100.698 200.962 100.837C201.138 100.975 201.253 101.178 201.28 101.4C201.41 102.52 201.53 103.64 201.65 104.78C201.673 105.003 201.606 105.225 201.466 105.399C201.326 105.573 201.122 105.685 200.9 105.71H200.81ZM199.9 98.14C199.695 98.1417 199.497 98.0685 199.342 97.934C199.187 97.7996 199.087 97.6132 199.06 97.41C198.9 96.29 198.74 95.18 198.57 94.08C198.539 93.9647 198.533 93.8442 198.552 93.7264C198.57 93.6085 198.614 93.4959 198.679 93.3959C198.744 93.2958 198.829 93.2107 198.929 93.1458C199.03 93.081 199.142 93.038 199.26 93.0197C199.378 93.0013 199.499 93.008 199.614 93.0393C199.729 93.0706 199.836 93.1257 199.929 93.2012C200.021 93.2767 200.097 93.3708 200.15 93.4774C200.204 93.584 200.235 93.7008 200.24 93.82C200.42 94.93 200.58 96.05 200.74 97.18C200.761 97.294 200.759 97.4111 200.734 97.5243C200.708 97.6374 200.66 97.7441 200.591 97.8377C200.523 97.9314 200.436 98.0101 200.336 98.0689C200.236 98.1278 200.125 98.1656 200.01 98.18L199.9 98.14ZM198.72 90.61C198.521 90.6104 198.329 90.5403 198.177 90.4121C198.025 90.2839 197.923 90.106 197.89 89.91C197.69 88.8 197.49 87.7 197.28 86.6C197.245 86.486 197.235 86.366 197.25 86.2477C197.264 86.1294 197.304 86.0156 197.365 85.9135C197.427 85.8114 197.509 85.7234 197.607 85.6552C197.704 85.587 197.815 85.5401 197.932 85.5175C198.049 85.495 198.17 85.4973 198.286 85.5243C198.402 85.5513 198.511 85.6024 198.606 85.6743C198.701 85.7462 198.78 85.8373 198.837 85.9416C198.895 86.046 198.93 86.1613 198.94 86.28C199.16 87.39 199.36 88.5 199.56 89.62C199.582 89.7311 199.581 89.8453 199.558 89.9561C199.535 90.0669 199.49 90.1719 199.425 90.2651C199.361 90.3582 199.279 90.4376 199.184 90.4985C199.088 90.5595 198.982 90.6008 198.87 90.62L198.72 90.61ZM197.27 83.13C197.077 83.1313 196.889 83.0651 196.739 82.9427C196.59 82.8204 196.487 82.6497 196.45 82.46C196.21 81.36 195.97 80.26 195.72 79.17C195.683 79.0578 195.671 78.9392 195.682 78.8217C195.694 78.7043 195.73 78.5906 195.788 78.4878C195.846 78.3851 195.925 78.2955 196.019 78.2249C196.114 78.1543 196.222 78.1041 196.337 78.0776C196.452 78.0511 196.572 78.0489 196.688 78.071C196.803 78.0931 196.913 78.1392 197.011 78.2062C197.108 78.2732 197.19 78.3598 197.252 78.4603C197.314 78.5608 197.354 78.673 197.37 78.79C197.62 79.89 197.87 81 198.1 82.11C198.125 82.2184 198.128 82.3308 198.108 82.4403C198.089 82.5499 198.048 82.6544 197.987 82.7477C197.926 82.841 197.848 82.9211 197.755 82.9834C197.663 83.0456 197.559 83.0887 197.45 83.11C197.375 83.1295 197.297 83.1329 197.22 83.12L197.27 83.13ZM195.46 75.7C195.271 75.7009 195.088 75.6383 194.939 75.5222C194.79 75.4061 194.685 75.2433 194.64 75.06C194.37 73.97 194.08 72.88 193.79 71.8C193.732 71.5838 193.762 71.3533 193.873 71.1592C193.985 70.9651 194.169 70.8233 194.385 70.765C194.601 70.7066 194.832 70.7365 195.026 70.8481C195.22 70.9597 195.362 71.1438 195.42 71.36C195.71 72.44 196 73.55 196.28 74.65C196.326 74.8631 196.288 75.0857 196.175 75.2718C196.061 75.458 195.881 75.5933 195.67 75.65L195.46 75.7ZM193.46 68.35C193.278 68.3511 193.101 68.2932 192.955 68.185C192.809 68.0768 192.702 67.9242 192.65 67.75C192.33 66.67 192 65.58 191.65 64.52C191.617 64.4143 191.604 64.303 191.614 64.1925C191.623 64.082 191.654 63.9745 191.706 63.8761C191.757 63.7776 191.827 63.6902 191.911 63.6188C191.996 63.5475 192.094 63.4935 192.2 63.46C192.306 63.4265 192.417 63.4142 192.528 63.4237C192.638 63.4332 192.746 63.4644 192.844 63.5155C192.942 63.5665 193.03 63.6365 193.101 63.7213C193.173 63.8062 193.227 63.9043 193.26 64.01C193.6 65.08 193.94 66.18 194.26 67.26C194.323 67.4761 194.298 67.7081 194.191 67.9063C194.085 68.1045 193.905 68.253 193.69 68.32L193.46 68.35ZM191.14 61.09C190.964 61.0894 190.793 61.0343 190.649 60.9322C190.506 60.8302 190.398 60.6861 190.34 60.52C189.98 59.46 189.6 58.39 189.21 57.34C189.136 57.1291 189.148 56.8975 189.243 56.6953C189.339 56.4932 189.51 56.3368 189.72 56.26C189.824 56.2217 189.934 56.2043 190.045 56.2087C190.155 56.2131 190.264 56.2393 190.364 56.2857C190.464 56.3322 190.554 56.398 190.629 56.4794C190.704 56.5608 190.762 56.6561 190.8 56.76C191.19 57.82 191.57 58.9 191.94 59.97C192.014 60.1822 192 60.4149 191.903 60.6172C191.805 60.8196 191.632 60.9752 191.42 61.05C191.339 61.0739 191.255 61.0873 191.17 61.09H191.14ZM188.5 53.94C188.332 53.9398 188.168 53.8893 188.029 53.7948C187.89 53.7003 187.782 53.5662 187.72 53.41C187.3 52.36 186.87 51.31 186.44 50.29C186.374 50.0875 186.386 49.8677 186.475 49.6739C186.563 49.4801 186.721 49.3265 186.917 49.2436C187.113 49.1606 187.333 49.1543 187.534 49.2258C187.734 49.2974 187.901 49.4416 188 49.63C188.44 50.63 188.87 51.73 189.29 52.78C189.372 52.9883 189.369 53.2207 189.281 53.4266C189.193 53.6326 189.028 53.7956 188.82 53.88C188.727 53.9157 188.629 53.936 188.53 53.94H188.5ZM185.5 46.94C185.336 46.9398 185.175 46.8926 185.037 46.804C184.899 46.7154 184.789 46.5891 184.72 46.44C184.26 45.44 183.78 44.44 183.29 43.44C183.198 43.2379 183.189 43.0078 183.264 42.7989C183.339 42.59 183.493 42.4189 183.693 42.3222C183.893 42.2255 184.123 42.2109 184.334 42.2815C184.544 42.3521 184.719 42.5023 184.82 42.7C185.3 43.7 185.82 44.7 186.27 45.78C186.362 45.9843 186.369 46.2166 186.29 46.4264C186.212 46.6361 186.054 46.8063 185.85 46.9C185.756 46.9252 185.658 46.9353 185.56 46.93L185.5 46.94ZM182.15 40.1C181.995 40.1001 181.842 40.0572 181.71 39.976C181.578 39.8948 181.47 39.7785 181.4 39.64C180.87 38.64 180.33 37.64 179.79 36.64C179.682 36.442 179.656 36.2094 179.718 35.9924C179.779 35.7755 179.924 35.5914 180.12 35.48C180.217 35.4253 180.324 35.3905 180.435 35.3775C180.545 35.3646 180.657 35.3737 180.764 35.4044C180.871 35.4351 180.971 35.4868 181.058 35.5564C181.145 35.626 181.217 35.7122 181.27 35.81C181.82 36.81 182.37 37.81 182.9 38.81C183.003 39.0106 183.022 39.2435 182.955 39.4586C182.888 39.6736 182.739 39.8537 182.54 39.96C182.44 40.0248 182.328 40.069 182.21 40.09L182.15 40.1ZM178.46 33.45C178.315 33.4527 178.173 33.4172 178.046 33.3469C177.92 33.2767 177.814 33.1742 177.74 33.05C177.15 32.05 176.55 31.13 175.94 30.21C175.819 30.0198 175.777 29.7896 175.824 29.5688C175.87 29.3481 176.002 29.1545 176.19 29.03C176.379 28.909 176.607 28.8675 176.827 28.9143C177.046 28.9611 177.237 29.0925 177.36 29.28C177.97 30.22 178.59 31.19 179.18 32.17C179.238 32.2644 179.277 32.3694 179.295 32.479C179.312 32.5886 179.308 32.7005 179.282 32.8083C179.256 32.9162 179.209 33.0178 179.143 33.1074C179.078 33.1969 178.995 33.2726 178.9 33.33C178.767 33.408 178.615 33.4493 178.46 33.45ZM174.26 27.1C174.125 27.0977 173.992 27.0639 173.873 27.0014C173.753 26.939 173.649 26.8494 173.57 26.74C172.91 25.82 172.24 24.92 171.57 24.05C171.433 23.8721 171.371 23.647 171.399 23.424C171.427 23.201 171.543 22.9982 171.72 22.86C171.9 22.7262 172.125 22.668 172.348 22.6979C172.57 22.7278 172.772 22.8434 172.91 23.02C173.59 23.9 174.28 24.82 174.91 25.76C175.039 25.9433 175.09 26.1702 175.053 26.3912C175.016 26.6122 174.892 26.8094 174.71 26.94C174.579 27.0368 174.423 27.0925 174.26 27.1ZM169.56 21.1C169.439 21.1001 169.319 21.0742 169.209 21.0242C169.098 20.9742 169 20.9011 168.92 20.81C168.18 19.95 167.43 19.11 166.68 18.32C166.521 18.1607 166.432 17.9449 166.432 17.72C166.432 17.4951 166.521 17.2793 166.68 17.12C166.758 17.0417 166.851 16.9795 166.953 16.9371C167.055 16.8947 167.165 16.8729 167.275 16.8729C167.386 16.8729 167.495 16.8947 167.597 16.9371C167.699 16.9795 167.792 17.0417 167.87 17.12C168.64 17.93 169.41 18.78 170.16 19.66C170.269 19.7817 170.34 19.9326 170.365 20.0941C170.389 20.2556 170.366 20.4208 170.298 20.5693C170.23 20.7179 170.12 20.8435 169.982 20.9306C169.844 21.0177 169.683 21.0627 169.52 21.06L169.56 21.1ZM108.81 19.93C108.622 19.9286 108.439 19.8653 108.29 19.75C108.202 19.6816 108.128 19.5964 108.073 19.4993C108.019 19.4022 107.984 19.2951 107.971 19.1843C107.958 19.0736 107.967 18.9613 107.998 18.8541C108.028 18.7469 108.08 18.6469 108.15 18.56C108.86 17.65 109.6 16.76 110.34 15.92C110.487 15.7516 110.695 15.6485 110.919 15.6335C111.142 15.6185 111.362 15.6928 111.53 15.84C111.699 15.9872 111.802 16.1953 111.817 16.4184C111.832 16.6416 111.757 16.8616 111.61 17.03C110.89 17.85 110.18 18.72 109.48 19.6C109.402 19.7035 109.301 19.7873 109.184 19.8446C109.068 19.9019 108.94 19.9312 108.81 19.93ZM164.3 15.6C164.088 15.5971 163.885 15.5151 163.73 15.37C162.9 14.6 162.06 13.86 161.23 13.16C161.144 13.0886 161.073 13.0008 161.02 12.9018C160.968 12.8027 160.936 12.6944 160.926 12.5829C160.915 12.4713 160.927 12.3589 160.961 12.252C160.994 12.1451 161.048 12.0459 161.12 11.96C161.191 11.8748 161.279 11.8045 161.377 11.7533C161.476 11.7021 161.584 11.671 161.694 11.6617C161.805 11.6524 161.916 11.6651 162.022 11.6992C162.128 11.7332 162.226 11.7879 162.31 11.86C163.17 12.58 164.04 13.34 164.88 14.13C165.039 14.2893 165.128 14.5051 165.128 14.73C165.128 14.9549 165.039 15.1707 164.88 15.33C164.73 15.493 164.521 15.59 164.3 15.6ZM113.89 14.3C113.777 14.301 113.665 14.2795 113.56 14.2365C113.455 14.1936 113.36 14.1302 113.28 14.05C113.2 13.9718 113.137 13.8784 113.094 13.7754C113.05 13.6724 113.028 13.5617 113.028 13.45C113.028 13.3382 113.05 13.2276 113.094 13.1246C113.137 13.0215 113.2 12.9282 113.28 12.85C114.11 12.04 114.97 11.26 115.83 10.54C115.915 10.4679 116.012 10.4132 116.118 10.3792C116.224 10.3451 116.335 10.3324 116.446 10.3417C116.557 10.351 116.664 10.3821 116.763 10.4333C116.861 10.4845 116.949 10.5548 117.02 10.64C117.093 10.7238 117.149 10.8216 117.184 10.9275C117.219 11.0334 117.232 11.1452 117.223 11.2562C117.213 11.3673 117.182 11.4753 117.13 11.5739C117.078 11.6725 117.006 11.7596 116.92 11.83C116.09 12.53 115.26 13.28 114.46 14.06C114.306 14.2079 114.103 14.2934 113.89 14.3ZM158.46 10.77C158.285 10.7697 158.115 10.7175 157.97 10.62C157.05 9.96999 156.12 9.34999 155.19 8.78999C155.014 8.66602 154.891 8.47969 154.847 8.26873C154.803 8.05777 154.841 7.83792 154.952 7.65367C155.064 7.46942 155.242 7.33452 155.449 7.27629C155.657 7.21805 155.879 7.24081 156.07 7.33998C157.07 7.92998 158 8.55998 158.95 9.22998C159.132 9.36055 159.256 9.55782 159.293 9.77882C159.33 9.99982 159.279 10.2267 159.15 10.41C159.073 10.5218 158.97 10.6131 158.85 10.6759C158.73 10.7386 158.596 10.7709 158.46 10.77ZM119.81 9.41998C119.629 9.41951 119.453 9.36119 119.307 9.25352C119.161 9.14585 119.054 8.99447 119 8.82144C118.947 8.6484 118.95 8.46277 119.009 8.29162C119.068 8.12047 119.181 7.97275 119.33 7.86999C120.33 7.21999 121.28 6.59998 122.27 6.04998C122.467 5.94232 122.698 5.91659 122.913 5.97839C123.128 6.04019 123.311 6.18452 123.42 6.37998C123.475 6.47697 123.51 6.58384 123.523 6.69441C123.535 6.80497 123.526 6.91702 123.496 7.02403C123.465 7.13103 123.413 7.23085 123.344 7.31771C123.274 7.40457 123.188 7.47673 123.09 7.52998C122.15 8.05998 121.2 8.63998 120.28 9.26998C120.131 9.37523 119.952 9.428 119.77 9.41998H119.81ZM151.91 6.90998C151.786 6.90735 151.664 6.88016 151.55 6.82998C150.55 6.34998 149.55 5.91998 148.55 5.54998C148.339 5.4711 148.168 5.31281 148.073 5.10905C147.977 4.90529 147.966 4.67228 148.04 4.45999C148.078 4.35494 148.136 4.25849 148.212 4.17628C148.287 4.09407 148.379 4.02774 148.48 3.98118C148.582 3.93463 148.691 3.90877 148.803 3.90513C148.915 3.90149 149.026 3.92015 149.13 3.95999C150.19 4.34999 151.26 4.79998 152.32 5.29998C152.523 5.39727 152.678 5.57073 152.753 5.78247C152.828 5.9942 152.816 6.227 152.72 6.42999C152.644 6.58672 152.522 6.71655 152.37 6.80227C152.218 6.88799 152.044 6.92556 151.87 6.90998H151.91ZM126.46 5.80998C126.29 5.81185 126.124 5.76222 125.983 5.6676C125.842 5.57298 125.733 5.43783 125.67 5.27998C125.59 5.07148 125.595 4.84015 125.683 4.63488C125.77 4.42961 125.934 4.26649 126.14 4.17999C127.217 3.75008 128.315 3.37624 129.43 3.05998C129.639 3.01025 129.86 3.04269 130.046 3.1506C130.232 3.25851 130.369 3.43366 130.43 3.63998C130.477 3.84908 130.444 4.06832 130.336 4.25376C130.229 4.43921 130.055 4.57715 129.85 4.63998C128.792 4.93621 127.75 5.29007 126.73 5.69998C126.647 5.75192 126.556 5.78913 126.46 5.80998ZM144.72 4.38998C144.654 4.39969 144.586 4.39969 144.52 4.38998C143.45 4.14998 142.36 3.95998 141.29 3.82998C141.066 3.80346 140.862 3.689 140.722 3.51177C140.582 3.33455 140.519 3.1091 140.545 2.88499C140.572 2.66088 140.686 2.45648 140.863 2.31677C141.041 2.17705 141.266 2.11346 141.49 2.13998C142.64 2.28017 143.782 2.48381 144.91 2.74998C145.126 2.80006 145.313 2.93319 145.431 3.12043C145.549 3.30768 145.588 3.53392 145.54 3.74998C145.494 3.9324 145.388 4.09423 145.239 4.21006C145.091 4.32589 144.908 4.38917 144.72 4.38998ZM133.79 3.85998C133.577 3.85531 133.374 3.77112 133.221 3.62402C133.067 3.47692 132.974 3.2776 132.961 3.06539C132.947 2.85319 133.013 2.64351 133.146 2.47775C133.279 2.31198 133.47 2.20217 133.68 2.16998C134.27 2.08998 134.87 2.02998 135.46 1.97998C136.05 1.92998 136.59 1.90999 137.15 1.89999C137.269 1.88706 137.389 1.89928 137.503 1.93585C137.616 1.97242 137.721 2.0325 137.81 2.11222C137.899 2.19194 137.97 2.2895 138.018 2.39852C138.067 2.50755 138.092 2.6256 138.092 2.74499C138.092 2.86438 138.067 2.98242 138.018 3.09144C137.97 3.20046 137.899 3.29802 137.81 3.37774C137.721 3.45746 137.616 3.51756 137.503 3.55413C137.389 3.5907 137.269 3.60291 137.15 3.58998C136.62 3.58998 136.08 3.58998 135.55 3.66998C135.02 3.74998 134.42 3.76999 133.87 3.84999L133.79 3.85998Z" fill="url(#paint4_linear_1_78)"/>
<path d="M70.95 192.4C50.89 192.4 37.32 186.91 32.43 176.69C26.7 164.76 33.33 147.86 51.07 129.12C68.62 110.59 95.01 92.37 125.38 77.81C155.75 63.25 186.46 54.1 211.93 52.03C237.66 49.94 254.93 55.36 260.69 67.3C266.19 78.77 260.23 94.96 243.91 112.88L242.63 111.72C258.44 94.35 264.31 78.84 259.14 68.05C253.75 56.8 237.03 51.72 212.07 53.76C186.84 55.76 156.32 64.9 126.13 79.37C95.94 93.84 69.73 111.93 52.32 130.31C35.11 148.49 28.59 164.7 33.98 175.95C39.06 186.53 54.39 191.7 77.15 190.51L77.24 192.23C75.08 192.343 72.9833 192.4 70.95 192.4Z" fill="url(#paint5_linear_1_78)"/>
<path d="M186.46 234.62C176.33 234.62 163.92 228.71 150.46 217.29L151.46 216.1C169.3 231.18 185.02 236.45 195.73 230.94C207.11 225.09 211.85 207.83 209.06 182.33C206.25 156.59 196.06 125.64 180.44 95.18C164.82 64.72 145.55 38.44 126.26 21.18C107.16 4.06 90.3702 -2.14 78.9802 3.71C68.0602 9.32 63.2202 25.61 65.3702 49.58L63.8202 49.71C61.6102 25.07 66.7402 8.24 78.2702 2.32C90.2702 -3.84 107.68 2.44 127.27 20.02C146.7 37.42 166.06 63.87 181.79 94.49C197.52 125.11 207.79 156.25 210.58 182.18C213.46 208.35 208.46 226.16 196.46 232.3C193.363 233.871 189.932 234.667 186.46 234.62Z" fill="url(#paint6_linear_1_78)"/>
<path d="M44.6502 143.3C44.6502 142.436 44.3939 141.591 43.9137 140.872C43.4335 140.154 42.751 139.593 41.9525 139.263C41.154 138.932 40.2753 138.845 39.4276 139.014C38.5799 139.183 37.8013 139.599 37.1901 140.21C36.5789 140.821 36.1627 141.6 35.9941 142.447C35.8255 143.295 35.9121 144.174 36.2428 144.972C36.5736 145.771 37.1337 146.453 37.8523 146.934C38.571 147.414 39.4159 147.67 40.2802 147.67C41.4392 147.67 42.5507 147.21 43.3702 146.39C44.1897 145.571 44.6502 144.459 44.6502 143.3Z" fill="url(#paint7_linear_1_78)"/>
<path d="M193.99 50.99C192.957 49.9563 191.64 49.2524 190.206 48.9671C188.773 48.6818 187.287 48.8281 185.936 49.3874C184.586 49.9467 183.432 50.8939 182.62 52.1092C181.807 53.3245 181.374 54.7533 181.374 56.215C181.374 57.6766 181.807 59.1055 182.62 60.3208C183.432 61.5361 184.586 62.4833 185.936 63.0426C187.287 63.6019 188.773 63.7482 190.206 63.4629C191.64 63.1776 192.957 62.4736 193.99 61.44C195.373 60.0528 196.15 58.1739 196.15 56.215C196.15 54.2561 195.373 52.3771 193.99 50.99Z" fill="url(#paint8_linear_1_78)"/>
<path d="M193.79 133.11C196.419 133.11 198.55 130.979 198.55 128.35C198.55 125.721 196.419 123.59 193.79 123.59C191.161 123.59 189.03 125.721 189.03 128.35C189.03 130.979 191.161 133.11 193.79 133.11Z" fill="url(#paint9_linear_1_78)"/>
<path d="M164.22 61.01C163.553 60.3421 162.703 59.887 161.778 59.7022C160.852 59.5175 159.893 59.6115 159.021 59.9723C158.149 60.3331 157.403 60.9445 156.879 61.7291C156.354 62.5137 156.074 63.4362 156.074 64.38C156.074 65.3238 156.354 66.2463 156.879 67.0309C157.403 67.8155 158.149 68.4269 159.021 68.7877C159.893 69.1485 160.852 69.2425 161.778 69.0577C162.703 68.873 163.553 68.4179 164.22 67.75C165.113 66.8557 165.614 65.6437 165.614 64.38C165.614 63.1163 165.113 61.9043 164.22 61.01Z" fill="url(#paint10_linear_1_78)"/>
<path opacity="0.5" d="M197.82 202.19L196.77 201.19C204.25 193.61 204.08 179.28 196.27 160.85C188.38 142.21 173.65 121.7 154.8 103.11C135.95 84.52 115.24 70.05 96.5001 62.42C77.9601 54.86 63.6301 54.88 56.1501 62.42L55.1001 61.42C63.0301 53.42 77.9301 53.24 97.1001 61.04C116.02 68.75 136.89 83.31 155.88 102.04C174.87 120.77 189.71 141.45 197.68 160.26C205.68 179.3 205.75 194.15 197.82 202.19Z" fill="url(#paint11_linear_1_78)"/>
<path d="M152.07 95.37C152.07 94.7035 151.872 94.0519 151.502 93.4977C151.132 92.9435 150.606 92.5116 149.99 92.2565C149.374 92.0015 148.696 91.9347 148.043 92.0648C147.389 92.1948 146.788 92.5158 146.317 92.9871C145.846 93.4584 145.525 94.0588 145.395 94.7126C145.265 95.3663 145.332 96.0439 145.587 96.6597C145.842 97.2755 146.274 97.8018 146.828 98.1721C147.382 98.5424 148.034 98.74 148.7 98.74C149.594 98.74 150.451 98.385 151.083 97.753C151.715 97.121 152.07 96.2638 152.07 95.37Z" fill="url(#paint12_linear_1_78)"/>
</g>
<defs>
<radialGradient id="paint0_radial_1_78" cx="0" cy="0" r="1" gradientUnits="userSpaceOnUse" gradientTransform="translate(173.092 96.6671) scale(147.77)">
<stop stop-color="white"/>
<stop offset="0.06" stop-color="#F9CBCC"/>
<stop offset="0.12" stop-color="#F2999B"/>
<stop offset="0.19" stop-color="#ED6F71"/>
<stop offset="0.25" stop-color="#E94F51"/>
<stop offset="0.31" stop-color="#E6383B"/>
<stop offset="0.36" stop-color="#E52A2D"/>
<stop offset="0.41" stop-color="#E42528"/>
<stop offset="0.45" stop-color="#D32325"/>
<stop offset="0.64" stop-color="#831815"/>
<stop offset="0.7" stop-color="#871B19"/>
<stop offset="0.76" stop-color="#922624"/>
<stop offset="0.82" stop-color="#A43738"/>
<stop offset="0.87" stop-color="#BD4F53"/>
<stop offset="0.93" stop-color="#DE6E76"/>
<stop offset="0.95" stop-color="#EE7D87"/>
</radialGradient>
<linearGradient id="paint1_linear_1_78" x1="245.08" y1="130.37" x2="224.06" y2="219.26" gradientUnits="userSpaceOnUse">
<stop stop-color="white"/>
<stop offset="0.61" stop-color="#B7B6B6"/>
<stop offset="1" stop-color="#B3AEAE"/>
</linearGradient>
<linearGradient id="paint2_linear_1_78" x1="145.62" y1="107.08" x2="124.66" y2="195.69" gradientUnits="userSpaceOnUse">
<stop stop-color="white"/>
<stop offset="0.61" stop-color="#B7B6B6"/>
<stop offset="1" stop-color="#B3AEAE"/>
</linearGradient>
<linearGradient id="paint3_linear_1_78" x1="45.0399" y1="83.06" x2="24.0302" y2="171.89" gradientUnits="userSpaceOnUse">
<stop stop-color="white"/>
<stop offset="0.61" stop-color="#B7B6B6"/>
<stop offset="1" stop-color="#B3AEAE"/>
</linearGradient>
<linearGradient id="paint4_linear_1_78" x1="114.121" y1="118.238" x2="200.699" y2="111.859" gradientUnits="userSpaceOnUse">
<stop stop-color="white"/>
<stop offset="0.61" stop-color="#B7B6B6"/>
<stop offset="1" stop-color="#B3AEAE"/>
</linearGradient>
<linearGradient id="paint5_linear_1_78" x1="161.595" y1="153.782" x2="125.993" y2="79.2679" gradientUnits="userSpaceOnUse">
<stop stop-color="white"/>
<stop offset="0.61" stop-color="#B7B6B6"/>
<stop offset="1" stop-color="#989695"/>
</linearGradient>
<linearGradient id="paint6_linear_1_78" x1="105.26" y1="133.09" x2="180.356" y2="94.2767" gradientUnits="userSpaceOnUse">
<stop offset="0.03" stop-color="white"/>
<stop offset="0.61" stop-color="#B7B6B6"/>
<stop offset="1" stop-color="#666565"/>
</linearGradient>
<linearGradient id="paint7_linear_1_78" x1="40.2802" y1="138.9" x2="40.2802" y2="147.65" gradientUnits="userSpaceOnUse">
<stop stop-color="#FBFBFB"/>
<stop offset="1" stop-color="#CCCACA"/>
</linearGradient>
<linearGradient id="paint8_linear_1_78" x1="182.313" y1="53.9658" x2="192.806" y2="64.4596" gradientUnits="userSpaceOnUse">
<stop stop-color="#EDECEC"/>
<stop offset="1" stop-color="#B4B3B3"/>
</linearGradient>
<linearGradient id="paint9_linear_1_78" x1="192.071" y1="132.366" x2="198.837" y2="125.6" gradientUnits="userSpaceOnUse">
<stop stop-color="#D1D1D1"/>
<stop offset="1" stop-color="#989797"/>
</linearGradient>
<linearGradient id="paint10_linear_1_78" x1="156.332" y1="63.7315" x2="163.098" y2="70.4978" gradientUnits="userSpaceOnUse">
<stop stop-color="#D1D1D1"/>
<stop offset="1" stop-color="#989797"/>
</linearGradient>
<linearGradient id="paint11_linear_1_78" x1="127.62" y1="132.026" x2="157.119" y2="102.072" gradientUnits="userSpaceOnUse">
<stop offset="0.02" stop-color="white"/>
<stop offset="0.61" stop-color="#B7B6B6"/>
<stop offset="1" stop-color="#989695"/>
</linearGradient>
<linearGradient id="paint12_linear_1_78" x1="148.7" y1="92" x2="148.7" y2="98.74" gradientUnits="userSpaceOnUse">
<stop stop-color="#D1D1D1"/>
<stop offset="1" stop-color="#989797"/>
</linearGradient>
<clipPath id="clip0_1_78">
<rect width="610.64" height="234.62" fill="white"/>
</clipPath>
</defs>
</svg>
